<svg xmlns="http://www.w3.org/2000/svg" xmlns:xlink="http://www.w3.org/1999/xlink" width="250" zoomAndPan="magnify" viewBox="0 0 187.5 74.999997" height="100" preserveAspectRatio="xMidYMid meet" version="1.0"><defs><g/><clipPath id="024c4d86e2"><path d="M 57 0.101562 L 101.8125 0.101562 L 101.8125 28 L 57 28 Z M 57 0.101562 " clip-rule="nonzero"/></clipPath><clipPath id="6d33c435c0"><path d="M 23.222656 0.101562 L 101.8125 0.101562 L 101.8125 74.898438 L 23.222656 74.898438 Z M 23.222656 0.101562 " clip-rule="nonzero"/></clipPath><clipPath id="c5385554ee"><path d="M 29.328125 22.121094 L 76.390625 22.121094 L 76.390625 72.398438 L 29.328125 72.398438 Z M 29.328125 22.121094 " clip-rule="nonzero"/></clipPath><clipPath id="e4c0fe0577"><path d="M 50.125 48.816406 C 49.933594 48.832031 49.863281 48.917969 49.941406 49.082031 L 49.976562 49.117188 C 50.082031 49.164062 50.128906 49.136719 50.269531 49.109375 L 50.433594 49.082031 C 50.578125 49.039062 50.503906 49.144531 50.546875 49.003906 L 50.546875 48.964844 L 50.507812 48.890625 C 50.472656 48.890625 50.429688 48.890625 50.394531 48.886719 C 50.320312 48.875 50.359375 48.878906 50.320312 48.851562 L 50.167969 48.851562 Z M 46.921875 48.0625 C 46.882812 47.929688 46.761719 47.96875 46.394531 47.871094 C 46.070312 47.789062 46.257812 47.65625 45.902344 47.644531 L 45.816406 47.609375 L 45.75 47.609375 L 45.714844 47.574219 C 45.566406 47.476562 45.617188 47.417969 45.492188 47.339844 C 45.414062 47.292969 45.210938 47.257812 45.109375 47.230469 L 45.074219 47.195312 C 44.957031 47.167969 44.960938 47.148438 44.847656 47.117188 L 44.804688 47.082031 C 44.640625 47.042969 44.519531 46.929688 44.382812 46.902344 C 44.285156 46.886719 44.195312 46.902344 44.097656 46.890625 C 43.945312 46.871094 43.996094 46.835938 43.828125 46.820312 C 43.710938 46.808594 43.699219 46.824219 43.597656 46.820312 L 43.441406 46.78125 L 43.378906 46.78125 L 43.335938 46.816406 C 43.242188 46.84375 43.246094 46.835938 43.144531 46.855469 C 42.972656 46.890625 43.09375 46.851562 42.957031 46.929688 C 42.839844 46.992188 42.734375 47.023438 42.652344 47.121094 L 42.621094 47.15625 C 42.535156 47.335938 42.574219 47.539062 42.882812 47.347656 L 42.90625 47.332031 L 43.261719 47.121094 L 43.296875 47.082031 C 43.558594 47.027344 43.433594 47.007812 43.613281 47.144531 C 43.871094 47.34375 43.6875 47.066406 44.347656 47.390625 C 44.488281 47.460938 44.492188 47.492188 44.734375 47.5 C 44.765625 47.5 44.808594 47.496094 44.84375 47.503906 C 44.914062 47.511719 44.886719 47.515625 44.921875 47.535156 C 45.1875 47.675781 45.054688 47.726562 45.242188 47.816406 C 45.324219 47.855469 45.367188 47.847656 45.464844 47.898438 C 45.5625 47.953125 45.554688 47.96875 45.636719 48.023438 C 45.574219 48.117188 45.285156 48.355469 45.664062 48.363281 L 45.714844 48.328125 C 45.855469 48.199219 46.203125 48.25 46.496094 48.25 C 46.53125 48.230469 46.4375 48.210938 46.617188 48.21875 C 46.773438 48.21875 46.648438 48.199219 46.699219 48.25 L 46.847656 48.25 L 46.882812 48.214844 L 46.921875 48.136719 Z M 48.894531 48.46875 C 48.796875 48.375 48.828125 48.359375 48.695312 48.328125 L 48.628906 48.289062 L 48.507812 48.289062 C 48.5 48.296875 48.421875 48.414062 48.421875 48.289062 C 48.136719 48.261719 48.339844 48.160156 47.953125 48.265625 C 47.730469 48.328125 47.605469 48.230469 47.410156 48.210938 L 47.375 48.210938 C 47.304688 48.230469 47.3125 48.222656 47.261719 48.25 C 47.269531 48.664062 47.484375 48.316406 47.5625 48.585938 L 47.597656 48.628906 L 47.601562 48.703125 L 47.601562 48.757812 C 47.480469 48.867188 47.148438 48.816406 46.996094 48.777344 L 46.921875 48.777344 C 46.855469 48.824219 46.785156 48.914062 46.875 49.003906 C 46.9375 49.066406 47.113281 49.042969 47.222656 49.042969 L 47.898438 49.078125 L 47.898438 49.191406 C 47.933594 49.3125 48.035156 49.378906 48.179688 49.324219 C 48.3125 49.265625 48.296875 49.160156 48.355469 49.042969 C 48.894531 49.042969 48.613281 48.964844 49.035156 48.964844 L 49.070312 48.929688 C 49.101562 48.945312 49.101562 48.941406 49.144531 48.96875 C 49.167969 48.984375 49.230469 49.035156 49.234375 49.035156 C 49.355469 49.105469 49.332031 49.113281 49.414062 49.003906 L 49.414062 48.890625 C 49.355469 48.808594 49.34375 48.792969 49.296875 48.699219 L 49.261719 48.664062 C 49.183594 48.628906 49.21875 48.636719 49.109375 48.621094 L 49.074219 48.589844 C 48.957031 48.53125 48.988281 48.5625 48.894531 48.46875 Z M 72.464844 38.949219 L 72.164062 38.949219 C 72.125 38.972656 72.152344 38.964844 72.085938 38.984375 C 72.074219 38.988281 72.035156 38.984375 72.011719 38.988281 C 71.863281 38.992188 71.683594 39.054688 71.570312 39.113281 C 71.417969 39.191406 71.359375 39.285156 71.1875 39.328125 L 71.144531 39.363281 C 71.023438 39.363281 70.972656 39.375 70.867188 39.339844 C 70.710938 39.296875 70.800781 39.289062 70.65625 39.25 L 70.617188 39.210938 C 70.449219 39.175781 70.378906 39.171875 70.242188 39.101562 L 70.203125 39.0625 L 70.160156 39.023438 C 70 38.945312 69.90625 38.964844 69.863281 39.136719 L 69.863281 39.4375 L 69.824219 39.476562 C 69.792969 39.59375 69.792969 39.5625 69.707031 39.621094 C 69.625 39.679688 69.628906 39.660156 69.550781 39.730469 C 69.453125 39.820312 69.367188 39.898438 69.296875 40.003906 L 69.257812 40.042969 C 69.160156 40.1875 69.03125 40.4375 69.035156 40.683594 L 69.035156 41.058594 L 69.03125 41.246094 C 68.910156 41.28125 68.902344 41.316406 68.816406 41.40625 C 68.734375 41.488281 68.679688 41.53125 68.617188 41.625 L 68.578125 41.660156 L 68.464844 41.8125 L 68.429688 41.847656 C 68.371094 41.933594 68.300781 42.023438 68.238281 42.113281 L 68.203125 42.160156 C 68.113281 42.300781 68.046875 42.429688 67.953125 42.582031 C 67.855469 42.746094 67.769531 42.867188 67.675781 43.015625 L 67.636719 43.054688 C 67.53125 43.207031 67.351562 43.367188 67.261719 43.507812 C 67.261719 43.566406 67.277344 43.554688 67.222656 43.554688 C 67.171875 43.613281 67.136719 43.640625 67.082031 43.703125 C 67.03125 43.765625 66.996094 43.824219 66.957031 43.882812 L 66.917969 43.917969 C 66.878906 43.996094 66.867188 44.011719 66.84375 44.109375 L 66.804688 44.144531 C 66.769531 44.304688 66.707031 44.503906 66.691406 44.675781 C 66.675781 44.917969 66.75 45.039062 66.769531 45.238281 L 66.804688 45.277344 C 66.84375 45.4375 66.949219 45.605469 67.03125 45.726562 L 67.070312 45.765625 L 67.070312 45.800781 L 67.109375 45.839844 C 67.140625 45.984375 67.179688 46.007812 67.183594 46.1875 C 67.21875 46.238281 67.261719 46.300781 67.183594 46.363281 C 67.183594 46.574219 67.125 46.675781 67.109375 46.859375 L 67.070312 46.894531 L 67.070312 46.933594 L 67.03125 46.972656 C 66.933594 47.113281 66.820312 47.125 66.804688 47.308594 L 66.804688 47.421875 C 66.820312 47.609375 66.9375 47.617188 67.03125 47.761719 C 66.996094 47.898438 66.996094 47.808594 66.957031 47.949219 L 66.917969 47.988281 C 66.890625 48.339844 66.855469 48.363281 67.097656 48.597656 C 67.253906 48.753906 67.382812 48.886719 67.484375 49.078125 L 67.527344 49.117188 C 67.605469 49.28125 67.660156 49.359375 67.765625 49.515625 C 67.816406 49.59375 67.851562 49.652344 67.898438 49.71875 C 67.957031 49.800781 67.996094 49.828125 68.050781 49.90625 L 68.09375 49.945312 L 68.125 49.980469 L 68.164062 50.023438 L 68.199219 50.058594 L 68.242188 50.09375 L 68.28125 50.128906 L 68.316406 50.171875 L 68.351562 50.207031 L 68.394531 50.242188 L 68.429688 50.285156 L 68.464844 50.320312 C 68.585938 50.402344 68.726562 50.53125 68.84375 50.621094 C 68.980469 50.726562 69.082031 50.84375 69.210938 50.972656 C 69.277344 51.035156 69.320312 51.074219 69.382812 51.140625 C 69.746094 51.519531 69.488281 51.464844 70.085938 51.414062 L 70.164062 51.375 C 70.363281 51.375 70.515625 51.316406 70.695312 51.304688 C 70.886719 51.289062 71.136719 51.300781 71.335938 51.300781 C 71.367188 51.277344 71.347656 51.285156 71.410156 51.265625 C 71.421875 51.265625 71.464844 51.265625 71.484375 51.265625 L 71.628906 51.261719 C 71.6875 51.226562 71.578125 51.265625 71.710938 51.226562 C 71.722656 51.222656 71.765625 51.226562 71.785156 51.226562 C 71.964844 51.222656 72.035156 51.164062 72.191406 51.148438 C 72.191406 51.097656 72.179688 51.113281 72.238281 51.113281 C 72.375 51.101562 72.417969 51.066406 72.539062 51.035156 L 72.578125 51 C 72.855469 50.9375 72.980469 50.828125 73.257812 50.960938 L 73.332031 51.035156 C 73.433594 51.089844 73.441406 51.109375 73.597656 51.113281 C 73.65625 51.113281 73.644531 51.097656 73.644531 51.148438 C 73.792969 51.1875 73.878906 51.269531 73.953125 51.398438 C 74.042969 51.558594 74.011719 51.714844 74.011719 51.941406 L 73.976562 51.984375 C 73.941406 52.117188 73.914062 52.085938 73.902344 52.242188 L 73.863281 52.28125 L 73.859375 52.355469 L 73.824219 52.394531 C 73.824219 52.582031 73.792969 52.601562 73.789062 52.734375 C 73.785156 52.882812 73.824219 52.914062 73.824219 53.109375 L 73.859375 53.144531 L 73.863281 53.226562 L 73.902344 53.296875 L 73.9375 53.441406 L 73.976562 53.484375 L 74.089844 53.859375 L 74.125 53.898438 L 74.125 53.996094 L 74.160156 54.050781 C 74.179688 54.230469 74.238281 54.285156 74.238281 54.5 L 74.273438 54.539062 L 74.277344 54.675781 C 74.300781 54.722656 74.285156 54.632812 74.3125 54.765625 C 74.316406 54.789062 74.316406 54.851562 74.316406 54.878906 L 74.316406 55.445312 C 74.316406 55.5 74.316406 55.492188 74.304688 55.546875 L 74.292969 55.570312 C 74.292969 55.566406 74.28125 55.585938 74.277344 55.59375 L 74.28125 55.707031 L 74.238281 55.773438 C 74.226562 55.917969 74.195312 55.957031 74.160156 56.082031 L 74.125 56.121094 C 74.097656 56.25 74.03125 56.351562 73.976562 56.460938 C 73.976562 56.515625 73.992188 56.503906 73.9375 56.503906 C 73.839844 56.667969 73.644531 57.054688 73.597656 57.25 L 73.558594 57.285156 C 73.53125 57.410156 73.496094 57.453125 73.484375 57.589844 C 73.484375 57.644531 73.5 57.632812 73.445312 57.632812 C 73.410156 57.777344 73.347656 57.964844 73.332031 58.117188 L 73.296875 58.191406 C 73.289062 58.46875 73.183594 58.683594 73.183594 59.019531 C 73.183594 59.179688 73.171875 59.105469 73.144531 59.140625 C 73.144531 59.398438 73.109375 59.511719 73.109375 59.746094 C 75.199219 56.078125 76.390625 51.832031 76.390625 47.308594 C 76.390625 45.261719 76.148438 43.269531 75.6875 41.359375 C 75.675781 41.367188 75.667969 41.375 75.65625 41.382812 C 75.648438 41.386719 75.484375 41.460938 75.472656 41.464844 C 75.3125 41.527344 75.296875 41.480469 75.144531 41.398438 L 75.105469 41.359375 C 75 41.285156 74.949219 41.210938 74.847656 41.128906 C 74.746094 41.046875 74.644531 40.980469 74.542969 40.90625 L 74.503906 40.871094 C 74.277344 40.753906 74.15625 40.582031 74.011719 40.382812 C 73.957031 40.382812 73.972656 40.398438 73.972656 40.34375 C 73.90625 40.207031 73.855469 40.03125 73.785156 39.890625 L 73.746094 39.851562 C 73.699219 39.65625 73.46875 39.425781 73.324219 39.300781 C 73.164062 39.164062 72.875 39.015625 72.617188 38.984375 C 72.566406 38.984375 72.5625 38.984375 72.511719 38.972656 C 72.507812 38.972656 72.492188 38.972656 72.488281 38.964844 C 72.480469 38.953125 72.472656 38.953125 72.464844 38.949219 Z M 70.730469 33.792969 C 70.535156 33.796875 70.527344 33.832031 70.402344 33.917969 C 70.253906 34.015625 70.199219 33.976562 69.976562 33.980469 L 69.9375 33.941406 C 69.800781 33.910156 69.679688 33.804688 69.550781 33.933594 C 69.425781 34.058594 69.53125 34.179688 69.597656 34.28125 L 69.785156 34.28125 L 69.824219 34.316406 C 69.980469 34.355469 70.109375 34.472656 70.199219 34.585938 C 70.289062 34.707031 70.394531 34.824219 70.472656 34.949219 C 70.59375 35.140625 70.871094 35.703125 70.621094 35.898438 L 70.578125 35.9375 C 70.257812 36.011719 70.25 35.929688 69.976562 35.941406 L 69.90625 35.898438 C 69.796875 35.875 69.847656 35.910156 69.785156 35.832031 C 69.734375 35.832031 69.75 35.84375 69.75 35.785156 C 69.707031 35.628906 69.683594 35.636719 69.496094 35.636719 C 69.496094 35.691406 69.507812 35.671875 69.445312 35.671875 C 69.339844 35.726562 69.339844 35.703125 69.222656 35.671875 C 69.15625 35.671875 69.167969 35.691406 69.167969 35.636719 L 69.109375 35.636719 L 69.070312 35.597656 C 68.855469 35.496094 68.785156 35.621094 68.65625 35.710938 C 68.65625 36.015625 68.726562 35.945312 68.746094 36.132812 C 68.769531 36.324219 68.683594 36.285156 68.789062 36.554688 C 68.964844 36.988281 68.707031 37.179688 68.65625 37.367188 L 68.65625 37.519531 L 68.84375 37.746094 L 68.878906 37.78125 L 68.882812 37.8125 C 68.933594 37.8125 68.921875 37.800781 68.921875 37.859375 L 68.921875 38.082031 C 68.921875 38.152344 68.941406 38.140625 68.882812 38.140625 C 68.882812 38.347656 68.902344 38.425781 69.074219 38.457031 C 69.148438 38.46875 69.226562 38.464844 69.3125 38.480469 C 69.425781 38.5 69.472656 38.515625 69.5625 38.535156 C 69.625 38.535156 69.613281 38.515625 69.613281 38.574219 C 69.792969 38.632812 69.839844 38.882812 70.070312 38.824219 C 70.273438 38.773438 70.210938 38.585938 70.617188 38.566406 L 70.683594 38.609375 L 70.996094 38.609375 L 71.03125 38.574219 C 71.226562 38.527344 71.214844 38.496094 71.296875 38.347656 L 71.335938 38.308594 C 71.351562 38.101562 71.347656 38.15625 71.339844 37.96875 C 71.335938 37.828125 71.398438 37.742188 71.410156 37.59375 L 71.449219 37.519531 C 71.457031 37.128906 71.832031 37.285156 71.949219 36.96875 C 72.023438 36.78125 71.894531 36.589844 72.058594 36.542969 C 72.203125 36.503906 72.226562 36.679688 72.351562 36.765625 L 72.398438 36.804688 C 72.835938 36.804688 72.585938 36.609375 72.929688 36.539062 C 72.945312 36.515625 73 36.425781 73 36.539062 C 73.214844 36.601562 73.246094 36.882812 73.296875 37.105469 L 73.332031 37.140625 C 73.355469 37.242188 73.367188 37.253906 73.410156 37.328125 L 73.445312 37.367188 C 73.550781 37.566406 73.710938 37.691406 73.871094 37.847656 C 74.050781 38.027344 74.136719 38.140625 74.277344 38.347656 L 74.316406 38.386719 C 74.34375 38.4375 74.355469 38.472656 74.390625 38.523438 C 74.445312 38.523438 74.425781 38.511719 74.425781 38.574219 C 74.449219 38.65625 74.460938 38.683594 74.484375 38.78125 C 74.523438 38.96875 74.449219 38.953125 74.578125 38.988281 L 74.617188 38.988281 C 74.742188 38.964844 74.667969 39.035156 74.691406 38.914062 C 74.691406 38.746094 74.671875 38.742188 74.730469 38.640625 C 74.804688 38.628906 74.796875 38.632812 74.851562 38.617188 C 74.820312 38.535156 74.789062 38.457031 74.761719 38.375 L 74.652344 38.273438 L 74.617188 38.234375 L 74.578125 38.195312 C 74.542969 38.0625 74.421875 37.925781 74.351562 37.816406 L 74.316406 37.785156 L 74.277344 37.746094 C 74.113281 37.503906 73.953125 37.460938 73.785156 37.140625 L 73.75 37.105469 C 73.707031 37.027344 73.683594 37.003906 73.671875 36.894531 C 73.617188 36.894531 73.636719 36.90625 73.636719 36.839844 L 73.636719 36.804688 C 73.675781 36.742188 73.636719 36.742188 73.675781 36.804688 C 73.789062 36.882812 73.894531 37.039062 73.992188 37.164062 C 74.085938 37.289062 74.265625 37.417969 74.441406 37.582031 C 73.757812 35.953125 72.910156 34.414062 71.917969 32.984375 C 71.894531 33.015625 71.859375 33.054688 71.859375 32.960938 C 71.671875 32.945312 71.808594 32.933594 71.636719 32.886719 L 71.597656 32.851562 L 71.296875 32.851562 C 71.238281 33.101562 71.222656 33.007812 71.371094 33.175781 L 71.40625 33.226562 L 71.40625 33.300781 L 71.371094 33.34375 C 71.226562 33.402344 71.066406 33.296875 70.898438 33.390625 C 70.765625 33.464844 70.667969 33.660156 70.730469 33.792969 Z M 68.691406 32.246094 C 68.691406 31.742188 68.632812 32.019531 68.554688 31.785156 C 68.46875 31.535156 68.558594 31.167969 68.089844 31.15625 L 68.050781 31.117188 L 68.015625 31.078125 C 67.738281 31.085938 67.757812 31.1875 67.863281 31.34375 C 67.542969 31.34375 67.742188 31.289062 67.523438 31.230469 C 67.464844 31.316406 67.476562 31.269531 67.449219 31.378906 L 67.484375 31.421875 L 67.523438 31.457031 C 67.542969 31.691406 67.609375 31.609375 67.675781 31.792969 C 67.742188 31.980469 67.667969 32.0625 67.691406 32.199219 C 67.714844 32.328125 67.832031 32.417969 67.945312 32.425781 C 68.125 32.441406 67.996094 32.355469 68.390625 32.359375 L 68.464844 32.359375 C 68.640625 32.34375 68.570312 32.328125 68.691406 32.246094 Z M 69.144531 32.210938 L 69.144531 32.371094 C 69.183594 32.417969 69.164062 32.308594 69.175781 32.441406 C 69.1875 32.59375 69.195312 32.46875 69.144531 32.519531 L 69.144531 32.84375 L 69.179688 32.886719 C 69.214844 32.996094 69.203125 32.953125 69.257812 33.042969 L 69.292969 33.078125 L 69.332031 33.113281 L 69.371094 33.152344 C 69.558594 33.25 69.601562 33.253906 69.796875 33.234375 C 70.03125 33.214844 70.023438 33.296875 70.277344 33.304688 L 70.324219 33.339844 L 70.351562 33.339844 L 70.390625 33.375 C 70.605469 33.375 70.691406 33.316406 70.617188 33.148438 L 70.582031 33.113281 C 70.570312 32.617188 70.40625 32.765625 70.253906 32.535156 C 70.203125 32.457031 70.164062 32.320312 70.113281 32.222656 C 70.050781 32.089844 70.007812 32.015625 69.9375 31.90625 L 69.902344 31.871094 C 69.660156 31.445312 69.292969 31.316406 69.191406 30.996094 C 69.128906 30.804688 69.15625 30.722656 68.957031 30.660156 L 68.921875 30.628906 C 68.511719 30.617188 68.890625 30.386719 68.65625 30.210938 L 68.609375 30.175781 C 68.472656 30.175781 68.457031 30.191406 68.355469 30.214844 C 68.328125 30.324219 68.316406 30.328125 68.316406 30.480469 L 68.351562 30.515625 L 68.355469 30.589844 L 68.316406 30.65625 L 68.316406 30.804688 L 68.351562 30.851562 C 68.480469 31.039062 68.480469 30.894531 68.617188 31.074219 L 68.652344 31.117188 C 68.8125 31.335938 68.667969 31.402344 68.851562 31.523438 C 68.980469 31.605469 68.976562 31.53125 69.082031 31.632812 C 69.140625 31.691406 69.109375 31.714844 69.222656 31.796875 L 69.253906 31.832031 C 69.375 31.894531 69.335938 31.917969 69.335938 32.097656 C 69.257812 32.144531 69.230469 32.164062 69.144531 32.210938 Z M 53.941406 25.617188 C 54.054688 25.792969 54.289062 25.917969 54.46875 26.03125 L 54.507812 26.070312 C 54.652344 26.171875 54.667969 26.230469 54.769531 26.367188 L 54.808594 26.410156 C 54.84375 26.550781 54.84375 26.460938 54.882812 26.597656 L 54.921875 26.636719 L 54.921875 26.660156 C 54.976562 26.660156 54.957031 26.648438 54.957031 26.710938 L 55.035156 26.863281 L 55.070312 26.898438 C 55.238281 27.148438 55.429688 27.363281 55.683594 27.535156 C 55.882812 27.667969 56.277344 27.910156 56.582031 27.917969 L 56.660156 27.953125 L 56.808594 27.945312 L 56.871094 27.992188 L 57.371094 27.992188 L 57.449219 27.957031 L 57.609375 27.953125 C 57.671875 27.902344 57.882812 27.886719 57.933594 27.953125 L 58.050781 27.953125 L 58.089844 27.992188 C 58.253906 28.03125 58.296875 28.09375 58.402344 28.207031 C 58.496094 28.308594 58.542969 28.410156 58.65625 28.484375 C 58.851562 28.609375 59.195312 28.628906 59.375 28.292969 L 59.410156 28.253906 C 59.527344 27.757812 59.546875 27.460938 59.296875 27.089844 L 59.257812 27.050781 L 59.261719 27.011719 L 59.296875 26.976562 C 59.464844 26.96875 59.488281 26.960938 59.5625 26.863281 L 59.597656 26.820312 C 59.640625 26.652344 59.640625 26.734375 59.597656 26.570312 C 59.546875 26.570312 59.5625 26.582031 59.5625 26.523438 C 59.503906 26.398438 59.523438 26.285156 59.523438 26.109375 L 59.5625 26.066406 L 59.710938 25.921875 L 59.75 25.882812 L 59.773438 25.882812 C 59.773438 25.824219 59.757812 25.84375 59.824219 25.84375 C 59.972656 25.832031 60.007812 25.8125 60.203125 25.808594 C 60.398438 25.804688 60.417969 25.773438 60.574219 25.769531 C 60.574219 25.71875 60.558594 25.730469 60.617188 25.730469 C 60.957031 25.652344 61.1875 25.367188 61.335938 25.09375 L 61.375 25.054688 C 61.441406 24.992188 61.460938 24.953125 61.582031 24.941406 C 61.613281 24.925781 61.585938 24.929688 61.675781 24.910156 C 61.6875 24.90625 61.730469 24.90625 61.75 24.90625 C 62.019531 24.894531 62.054688 24.722656 62.152344 24.628906 C 59 23.101562 55.480469 22.210938 51.761719 22.121094 L 51.859375 22.15625 L 51.941406 22.15625 L 51.976562 22.191406 C 52.113281 22.203125 52.15625 22.238281 52.28125 22.269531 C 52.34375 22.269531 52.332031 22.25 52.332031 22.304688 L 52.390625 22.304688 L 52.429688 22.34375 C 52.597656 22.382812 52.800781 22.507812 52.925781 22.601562 C 53.328125 22.898438 53.550781 23.523438 54.316406 23.507812 L 54.378906 23.546875 C 54.464844 23.5625 54.453125 23.554688 54.503906 23.585938 L 54.546875 23.625 L 54.585938 23.734375 L 54.5 23.738281 C 54.421875 23.789062 54.367188 23.804688 54.289062 23.738281 C 53.992188 23.738281 53.714844 23.632812 53.457031 23.773438 L 53.410156 23.8125 C 53.359375 23.890625 53.316406 23.914062 53.335938 24.070312 C 53.34375 24.164062 53.390625 24.246094 53.460938 24.289062 C 53.65625 24.417969 53.792969 24.269531 54.019531 24.265625 L 54.089844 24.222656 L 54.257812 24.226562 C 54.316406 24.171875 54.332031 24.1875 54.429688 24.183594 C 54.535156 24.183594 54.570312 24.171875 54.617188 24.226562 L 54.65625 24.265625 L 54.617188 24.300781 L 54.53125 24.300781 L 54.429688 24.34375 C 54.183594 24.351562 53.914062 24.574219 53.863281 24.792969 L 53.828125 24.828125 L 53.828125 24.867188 C 53.828125 24.929688 53.84375 24.914062 53.789062 24.914062 L 53.789062 25.359375 L 53.824219 25.394531 C 53.847656 25.492188 53.859375 25.503906 53.902344 25.578125 Z M 51.046875 27.691406 C 50.988281 27.675781 50.953125 27.695312 50.996094 27.652344 C 51.042969 27.609375 51.132812 27.71875 51.046875 27.691406 Z M 48.3125 26.035156 L 48.167969 26.183594 L 48.128906 26.21875 C 48.023438 26.292969 48.035156 26.335938 47.914062 26.371094 L 47.828125 26.40625 C 47.652344 26.425781 47.640625 26.492188 47.636719 26.675781 C 47.699219 26.738281 47.71875 26.761719 47.828125 26.785156 C 47.796875 26.90625 47.832031 26.84375 47.738281 26.898438 L 47.636719 26.941406 L 47.441406 26.9375 L 47.375 26.976562 C 47.136719 26.976562 47.207031 27.011719 47.03125 27.050781 L 47 27.050781 C 46.824219 27.035156 46.863281 26.988281 46.730469 26.980469 C 46.597656 26.972656 46.601562 27.019531 46.464844 27.050781 L 46.429688 27.085938 C 46.289062 27.121094 46.269531 27.167969 46.128906 27.203125 C 46.128906 27.558594 46.300781 27.453125 46.632812 27.492188 C 46.953125 27.535156 47.019531 27.367188 47.222656 27.3125 L 47.261719 27.277344 L 47.328125 27.277344 L 47.375 27.242188 C 47.582031 27.214844 47.453125 27.230469 47.675781 27.242188 L 47.710938 27.277344 C 48.011719 27.414062 47.75 27.238281 48.355469 27.574219 C 48.589844 27.703125 48.433594 27.734375 48.582031 27.921875 L 48.621094 27.953125 L 49.183594 27.957031 L 49.261719 28.027344 L 49.292969 28.066406 C 49.335938 28.195312 49.320312 28.183594 49.449219 28.21875 L 49.636719 28.21875 L 49.863281 28.214844 L 49.933594 28.253906 C 50.121094 28.300781 49.972656 28.328125 50.242188 28.332031 L 50.285156 28.367188 L 50.355469 28.40625 L 50.394531 28.445312 C 50.480469 28.484375 50.558594 28.5 50.605469 28.386719 C 50.667969 28.242188 50.570312 28.195312 50.503906 28.144531 C 50.335938 28.019531 50.246094 27.941406 50.015625 27.875 L 49.976562 27.84375 C 49.867188 27.839844 49.832031 27.835938 49.753906 27.800781 C 49.65625 27.761719 49.628906 27.730469 49.601562 27.652344 L 49.789062 27.65625 L 49.929688 27.691406 L 50.054688 27.691406 L 50.089844 27.726562 C 50.25 27.742188 50.269531 27.789062 50.429688 27.804688 L 50.464844 27.84375 C 50.546875 27.859375 50.621094 27.871094 50.714844 27.894531 C 50.84375 27.929688 50.847656 27.949219 50.996094 27.953125 C 51.078125 27.832031 51.058594 27.929688 51.070312 27.765625 C 51.191406 27.847656 51.097656 27.828125 51.261719 27.84375 C 51.320312 27.585938 51.277344 27.535156 51.070312 27.425781 L 51.03125 27.390625 L 50.960938 27.3125 C 50.859375 27.25 50.882812 27.230469 50.753906 27.179688 C 50.65625 27.144531 50.59375 27.140625 50.492188 27.101562 C 50.289062 27.015625 50.207031 26.933594 50.054688 26.820312 L 50.019531 26.785156 C 49.890625 26.753906 49.941406 26.773438 49.863281 26.691406 L 49.828125 26.636719 C 49.859375 26.492188 49.847656 26.511719 49.941406 26.457031 L 49.972656 26.597656 C 50.019531 26.648438 49.914062 26.640625 50.054688 26.628906 C 50.132812 26.625 50.085938 26.632812 50.128906 26.597656 C 50.128906 26.5625 50.128906 26.519531 50.132812 26.484375 C 50.15625 26.324219 50.132812 26.464844 50.167969 26.394531 L 50.167969 26.335938 C 50.28125 26.363281 50.277344 26.382812 50.390625 26.414062 L 50.460938 26.449219 C 50.632812 26.53125 50.625 26.558594 50.882812 26.5625 L 50.917969 26.597656 L 50.917969 26.675781 C 50.972656 26.855469 51.007812 26.820312 51.222656 26.828125 L 51.261719 26.863281 C 51.34375 26.949219 51.355469 26.972656 51.523438 26.976562 C 51.582031 26.855469 51.539062 26.820312 51.59375 26.710938 C 51.59375 26.710938 51.679688 26.585938 51.679688 26.710938 L 51.75 26.714844 L 51.863281 26.714844 C 52.164062 26.679688 52.445312 26.15625 52.066406 26.167969 C 51.683594 26.175781 51.894531 26.113281 51.652344 26.054688 C 51.375 25.988281 51.746094 26.140625 51.183594 25.992188 L 51.148438 25.957031 L 51.109375 25.921875 C 51.054688 25.921875 51.066406 25.9375 51.066406 25.882812 L 50.996094 25.84375 L 50.960938 25.808594 C 50.820312 25.777344 50.554688 25.734375 50.390625 25.726562 L 50.351562 25.695312 C 50.089844 25.546875 50.28125 25.617188 49.9375 25.582031 C 49.671875 25.554688 49.820312 25.453125 49.867188 25.28125 L 49.902344 25.242188 C 49.921875 25.015625 50.003906 25.09375 50.128906 25.015625 L 50.128906 24.902344 L 50.082031 24.867188 L 50.015625 24.863281 L 49.980469 24.828125 L 49.515625 24.867188 L 49.449219 24.902344 L 49.367188 24.882812 C 49.449219 24.734375 49.394531 24.617188 49.207031 24.660156 C 48.996094 24.710938 49.378906 24.765625 48.828125 24.621094 C 48.554688 24.546875 48.664062 24.492188 48.511719 24.40625 C 48.335938 24.3125 48.269531 24.4375 48.09375 24.453125 C 48.085938 24.460938 48.007812 24.578125 48.007812 24.453125 L 47.917969 24.453125 C 47.90625 24.457031 47.898438 24.464844 47.890625 24.46875 L 47.863281 24.480469 C 47.835938 24.492188 47.820312 24.488281 47.789062 24.488281 L 47.636719 24.488281 L 47.5625 24.453125 L 47.449219 24.453125 L 47.449219 24.339844 C 47.570312 24.335938 47.667969 24.34375 47.632812 24.199219 C 47.609375 24.097656 47.511719 24.089844 47.410156 24.035156 L 47.375 24 C 47.21875 24 47.230469 24.007812 47.113281 24.039062 L 47.070312 24.074219 C 46.839844 24.082031 46.925781 24.144531 46.699219 24.152344 L 46.65625 24.1875 C 46.367188 24.214844 46.488281 24.453125 46.167969 24.449219 L 46.132812 24.414062 C 45.941406 24.171875 45.765625 24.371094 45.546875 24.414062 C 45.527344 24.449219 45.476562 24.519531 45.476562 24.414062 C 45.390625 24.234375 45.617188 24.003906 45.335938 23.921875 L 45.183594 23.921875 C 45.054688 23.960938 45.101562 23.953125 45.015625 24.039062 C 44.988281 24.054688 44.996094 24.058594 44.9375 24.0625 C 44.886719 24.0625 44.894531 24.085938 44.894531 24.039062 L 44.808594 24.039062 L 44.769531 24 C 44.621094 24 44.617188 24.011719 44.507812 24.039062 L 44.46875 24.074219 C 44.253906 24.195312 44.359375 24.140625 44.242188 24.339844 C 44.171875 24.449219 44.089844 24.492188 44.015625 24.601562 C 44.042969 24.703125 44.011719 24.632812 44.054688 24.714844 L 44.089844 24.757812 L 44.125 24.792969 C 44.171875 24.847656 44.167969 24.707031 44.167969 24.90625 C 44.144531 24.914062 44.042969 25.003906 43.941406 24.945312 C 43.933594 24.941406 43.8125 24.859375 43.941406 24.859375 C 43.925781 24.789062 43.929688 24.800781 43.902344 24.75 L 43.855469 24.714844 C 43.429688 24.675781 43.972656 23.90625 43.4375 24.210938 C 43.410156 24.226562 43.40625 24.28125 43.144531 24.300781 L 43.109375 24.335938 C 42.917969 24.386719 42.855469 24.328125 42.804688 24.492188 L 42.769531 24.527344 C 42.65625 24.679688 42.675781 24.523438 42.617188 24.714844 L 42.582031 24.75 C 42.515625 24.855469 42.476562 24.878906 42.542969 25.015625 L 42.578125 25.054688 C 42.632812 25.082031 42.621094 25.078125 42.699219 25.09375 L 42.734375 25.058594 L 42.882812 25.058594 L 42.933594 25.09375 L 43.113281 25.09375 L 43.148438 25.058594 L 43.261719 25.054688 L 43.230469 25.128906 L 43.148438 25.164062 L 43.109375 25.164062 L 42.96875 25.128906 C 42.464844 25.128906 42.648438 25.4375 42.835938 25.421875 L 43.449219 25.320312 L 43.5 25.355469 L 43.738281 25.355469 L 43.789062 25.320312 L 43.863281 25.320312 L 43.914062 25.355469 L 44.03125 25.355469 L 44.089844 25.3125 L 44.316406 25.320312 L 44.359375 25.355469 L 44.507812 25.355469 L 44.542969 25.320312 C 44.734375 25.316406 44.984375 25.332031 45.117188 25.289062 C 45.347656 25.214844 45.289062 25.113281 45.515625 25.054688 L 45.785156 25.054688 L 45.828125 25.019531 L 46.046875 24.820312 C 46.097656 24.992188 46.195312 24.964844 46.355469 25.015625 C 46.546875 25.082031 46.503906 25.160156 46.730469 25.167969 C 46.871094 25.171875 46.804688 25.160156 46.875 25.207031 C 46.992188 25.214844 47.125 25.339844 47.410156 25.46875 C 47.5 25.507812 47.527344 25.539062 47.601562 25.582031 C 47.960938 25.789062 47.964844 25.601562 48.28125 25.984375 Z M 46.28125 40.351562 C 46.285156 40.023438 46.390625 39.699219 46.503906 39.476562 L 46.542969 39.441406 L 46.621094 39.363281 C 46.695312 39.328125 46.753906 39.308594 46.847656 39.289062 L 46.882812 39.253906 C 47.140625 39.074219 47.058594 39 47.214844 38.753906 C 47.339844 38.550781 47.449219 38.472656 47.640625 38.347656 L 47.675781 38.308594 C 47.945312 38.125 48.171875 37.902344 48.355469 37.632812 L 48.394531 37.59375 C 48.53125 37.339844 48.644531 37.113281 48.882812 36.953125 L 48.921875 36.917969 C 49.054688 36.847656 49.273438 36.707031 49.449219 36.691406 L 49.488281 36.652344 L 49.570312 36.652344 L 49.636719 36.609375 C 49.925781 36.625 50.132812 36.589844 50.316406 36.5 L 50.355469 36.464844 C 50.527344 36.417969 50.589844 36.292969 50.804688 36.277344 L 50.84375 36.238281 L 50.882812 36.238281 L 50.921875 36.203125 C 51.148438 36.183594 51.035156 36.183594 51.261719 36.203125 C 51.222656 36.347656 51.117188 36.386719 50.96875 36.425781 C 50.96875 36.480469 50.980469 36.464844 50.921875 36.464844 C 50.691406 36.519531 50.472656 36.632812 50.46875 36.914062 L 50.507812 36.953125 C 50.566406 37.183594 50.859375 37.210938 51 37.03125 C 51.054688 36.957031 51.085938 36.882812 51.15625 36.8125 C 51.25 36.714844 51.300781 36.710938 51.414062 36.652344 L 51.449219 36.617188 C 51.585938 36.582031 51.558594 36.550781 51.710938 36.539062 C 51.710938 36.488281 51.695312 36.5 51.75 36.5 L 51.855469 36.5 L 51.941406 36.464844 C 52.207031 36.464844 52.296875 36.4375 52.503906 36.390625 C 52.53125 36.277344 52.542969 36.273438 52.542969 36.125 L 52.429688 36.050781 L 52.390625 36.011719 L 52.214844 36.011719 C 52.121094 36.066406 52.0625 36.066406 51.945312 36.039062 L 51.886719 36.011719 C 51.613281 36.011719 51.355469 35.832031 51.242188 35.652344 C 51.167969 35.53125 51.160156 35.4375 51.078125 35.328125 C 50.980469 35.191406 50.910156 35.183594 50.769531 35.109375 L 50.734375 35.070312 L 50.851562 34.996094 C 50.886719 34.972656 50.855469 34.976562 50.925781 34.960938 C 50.953125 34.957031 51.003906 34.960938 51.035156 34.960938 C 51.207031 34.941406 51.136719 34.925781 51.261719 34.84375 C 51.261719 34.777344 51.269531 34.648438 51.253906 34.589844 C 51.222656 34.460938 51.214844 34.488281 51.109375 34.429688 C 50.945312 34.429688 51.035156 34.425781 51 34.394531 L 50.820312 34.394531 C 50.792969 34.40625 50.792969 34.417969 50.730469 34.429688 C 50.71875 34.429688 50.671875 34.433594 50.660156 34.433594 C 50.621094 34.4375 50.550781 34.429688 50.507812 34.429688 C 50.253906 34.429688 50.214844 34.488281 50.019531 34.507812 L 49.976562 34.542969 C 49.761719 34.5625 49.421875 34.753906 49.289062 34.875 C 49.117188 35.027344 48.972656 35.277344 48.734375 35.335938 L 48.734375 35.222656 L 48.769531 35.179688 C 48.863281 35.050781 48.976562 34.945312 49.117188 34.851562 C 49.207031 34.792969 49.433594 34.613281 49.488281 34.542969 L 49.523438 34.503906 L 49.5625 34.46875 C 49.753906 34.339844 49.90625 34.226562 50.167969 34.167969 L 50.203125 34.128906 C 50.363281 34.117188 50.46875 34.054688 50.613281 34.015625 L 50.65625 33.980469 C 50.730469 33.941406 50.804688 33.914062 50.910156 33.902344 C 50.910156 33.847656 50.898438 33.867188 50.957031 33.867188 C 51.132812 33.863281 51.289062 33.828125 51.523438 33.828125 C 51.773438 33.828125 51.890625 33.863281 52.089844 33.867188 L 52.125 33.902344 C 52.308594 33.902344 52.292969 33.9375 52.433594 33.941406 C 52.59375 33.945312 52.585938 33.902344 52.777344 33.902344 L 52.84375 33.867188 C 53.019531 33.851562 53.21875 33.71875 53.335938 33.640625 L 53.375 33.605469 C 53.480469 33.546875 53.542969 33.492188 53.695312 33.488281 C 53.695312 33.433594 53.683594 33.453125 53.75 33.453125 C 54.128906 33.453125 54.277344 33.464844 54.5 33.300781 C 54.5 33.246094 54.484375 33.257812 54.539062 33.257812 L 54.582031 33.226562 L 54.617188 33.1875 C 54.777344 32.953125 54.808594 32.863281 54.808594 32.472656 C 54.808594 32.328125 54.816406 32.164062 54.808594 32.019531 C 54.800781 31.835938 54.746094 31.773438 54.730469 31.609375 L 54.691406 31.570312 L 54.695312 31.539062 L 54.65625 31.492188 L 54.582031 31.34375 L 54.542969 31.304688 L 54.503906 31.269531 L 54.351562 31.117188 C 54.265625 31.058594 54.203125 30.996094 54.089844 30.96875 L 54.050781 30.929688 C 53.6875 30.84375 53.5625 30.832031 53.191406 30.929688 C 53.191406 30.980469 53.203125 30.96875 53.148438 30.96875 C 52.855469 30.992188 52.625 31.074219 52.382812 30.898438 C 52.160156 30.734375 52.167969 30.585938 52.089844 30.300781 C 52.035156 30.300781 52.054688 30.3125 52.054688 30.25 C 52.007812 30.167969 51.988281 30.136719 51.941406 30.0625 L 51.894531 30.03125 L 51.863281 29.992188 L 51.824219 29.949219 L 51.714844 29.878906 L 51.675781 29.835938 C 51.539062 29.734375 51.636719 29.816406 51.582031 29.628906 C 51.546875 29.507812 51.527344 29.480469 51.449219 29.425781 L 51.410156 29.386719 C 51.195312 29.277344 50.96875 29.351562 50.859375 29.511719 C 50.613281 29.890625 50.328125 30.058594 49.8125 29.929688 C 49.546875 29.859375 49.457031 29.816406 49.335938 29.621094 C 49.28125 29.621094 49.296875 29.632812 49.296875 29.574219 L 49.296875 29.53125 C 49.246094 29.464844 49.277344 29.550781 49.261719 29.425781 C 49.257812 29.394531 49.261719 29.308594 49.261719 29.273438 C 49.179688 28.925781 48.929688 28.886719 48.65625 28.746094 L 48.617188 28.707031 C 48.496094 28.625 48.445312 28.523438 48.28125 28.480469 L 48.242188 28.445312 C 48.121094 28.386719 47.96875 28.328125 47.789062 28.332031 L 47.449219 28.332031 C 47.265625 28.328125 47.289062 28.363281 47.144531 28.367188 C 46.972656 28.371094 47.027344 28.332031 46.847656 28.332031 C 46.746094 28.332031 46.597656 28.355469 46.550781 28.292969 C 46.390625 28.257812 46.414062 28.199219 46.265625 28.238281 C 46.257812 28.242188 46.144531 28.304688 46.144531 28.308594 C 46.066406 28.390625 46.105469 28.25 46.089844 28.445312 L 46.089844 28.554688 C 46.101562 28.6875 46.121094 28.722656 46.128906 28.894531 C 46.140625 29.0625 46.175781 29.125 46.195312 29.246094 C 46.257812 29.628906 46.074219 29.539062 45.941406 29.800781 L 45.902344 29.835938 C 45.902344 30.164062 45.894531 30.199219 46.113281 30.34375 C 46.261719 30.441406 46.402344 30.523438 46.453125 30.71875 C 46.570312 31.152344 46.140625 31.480469 45.902344 31.605469 L 45.863281 31.644531 C 45.597656 31.785156 45.375 31.910156 45.414062 32.355469 C 45.425781 32.539062 45.484375 32.644531 45.488281 32.847656 C 45.496094 33.105469 45.457031 33.183594 45.410156 33.375 L 45.375 33.414062 C 45.191406 33.6875 44.863281 33.761719 44.65625 33.453125 L 44.621094 33.414062 C 44.519531 33.234375 44.492188 33.132812 44.4375 32.917969 C 44.402344 32.785156 44.359375 32.457031 44.355469 32.3125 L 44.316406 32.246094 C 44.285156 32.09375 44.144531 31.871094 44.042969 31.769531 C 44 31.726562 43.871094 31.636719 43.824219 31.609375 C 43.742188 31.554688 43.679688 31.503906 43.5625 31.496094 L 43.523438 31.457031 C 43.34375 31.457031 43.363281 31.425781 43.222656 31.421875 C 43.058594 31.414062 43.074219 31.457031 42.882812 31.457031 L 42.847656 31.492188 L 42.757812 31.492188 C 42.683594 31.558594 42.523438 31.554688 42.433594 31.492188 L 42.242188 31.496094 L 42.136719 31.457031 C 41.867188 31.457031 41.769531 31.378906 41.523438 31.378906 L 41.453125 31.34375 C 41.285156 31.328125 40.933594 31.183594 40.808594 31.117188 L 40.773438 31.078125 C 40.644531 30.996094 40.375 30.644531 40.304688 30.488281 C 40.25 30.363281 40.203125 30.230469 40.203125 30.0625 C 40.199219 29.828125 40.265625 29.765625 40.28125 29.574219 L 40.316406 29.53125 L 40.316406 29.5 L 40.355469 29.460938 C 40.382812 29.410156 40.402344 29.359375 40.433594 29.3125 C 40.476562 29.238281 40.496094 29.230469 40.539062 29.160156 C 40.539062 29.105469 40.527344 29.117188 40.582031 29.117188 C 40.644531 29.03125 40.664062 29.023438 40.695312 28.894531 C 40.695312 28.839844 40.679688 28.851562 40.734375 28.851562 L 40.734375 28.820312 L 40.769531 28.785156 C 40.800781 28.648438 40.816406 28.632812 40.914062 28.550781 C 40.980469 28.492188 41.066406 28.429688 41.148438 28.40625 L 41.1875 28.367188 L 41.21875 28.367188 L 41.261719 28.332031 C 41.445312 28.316406 41.445312 28.253906 41.660156 28.253906 C 41.660156 28.199219 41.648438 28.21875 41.714844 28.21875 C 41.902344 28.214844 42 28.144531 42.167969 28.105469 L 42.203125 28.070312 C 42.410156 28.019531 42.824219 27.761719 42.921875 27.617188 C 42.894531 27.503906 42.925781 27.5625 42.847656 27.503906 L 42.695312 27.503906 L 42.769531 27.464844 C 43.113281 27.167969 43.195312 26.855469 43.429688 26.8125 C 43.625 26.773438 43.695312 26.953125 43.921875 26.886719 C 44.058594 26.847656 44.007812 26.804688 44.144531 26.765625 C 44.242188 26.734375 44.363281 26.75 44.46875 26.75 L 44.507812 26.710938 L 44.539062 26.710938 L 44.582031 26.675781 C 44.65625 26.632812 44.648438 26.640625 44.71875 26.585938 C 44.816406 26.511719 44.742188 26.523438 44.882812 26.484375 L 44.921875 26.449219 C 45.140625 26.394531 45.078125 26.15625 44.945312 26.046875 C 44.804688 25.9375 44.703125 25.8125 44.582031 25.730469 L 44.539062 25.695312 L 44.46875 25.695312 C 44.40625 25.695312 44.417969 25.710938 44.417969 25.65625 L 44.210938 25.65625 L 44.167969 25.695312 C 44.019531 25.730469 44.011719 25.773438 43.859375 25.808594 L 43.789062 25.847656 C 43.398438 25.933594 43.832031 26.269531 43.324219 26.371094 L 43.261719 26.414062 C 42.984375 26.40625 43.027344 26.511719 42.734375 26.371094 C 42.84375 26.222656 42.898438 26.335938 42.921875 26.109375 L 42.921875 26.070312 C 42.898438 25.839844 42.699219 25.859375 42.539062 25.910156 C 42.359375 25.96875 42.335938 26.058594 42.167969 26.148438 L 42.089844 26.070312 L 42.050781 26.035156 L 42.015625 25.996094 C 41.921875 25.914062 41.863281 25.875 41.675781 25.878906 C 41.511719 25.882812 41.433594 25.921875 41.34375 26.003906 C 41.109375 26.21875 41.28125 26.335938 40.921875 26.523438 L 40.882812 26.558594 L 40.734375 26.710938 L 40.695312 26.75 L 40.65625 26.785156 C 40.59375 26.90625 40.550781 26.984375 40.429688 27.050781 C 40.246094 27.15625 40.21875 27.105469 40.015625 27.089844 C 39.960938 27.089844 39.972656 27.105469 39.972656 27.050781 C 39.773438 27 39.800781 26.976562 39.527344 26.976562 L 39.414062 26.976562 C 38.949219 26.976562 38.917969 27.136719 38.613281 27.203125 L 38.542969 27.242188 C 38.386719 27.238281 38.261719 27.292969 38.125 27.308594 C 37.972656 27.324219 37.757812 27.3125 37.601562 27.3125 L 37.5625 27.351562 L 37.421875 27.351562 L 37.335938 27.390625 C 36.984375 27.417969 36.816406 27.65625 36.507812 27.726562 L 36.46875 27.765625 C 36.292969 27.808594 36.210938 27.875 36.003906 27.878906 L 35.941406 27.921875 C 35.769531 27.914062 35.746094 27.957031 35.605469 27.992188 L 35.5625 28.03125 L 35.464844 28.03125 L 35.414062 28.066406 C 35.238281 28.074219 35.160156 28.128906 34.996094 28.140625 C 34.96875 28.144531 34.792969 28.144531 34.773438 28.140625 L 34.761719 28.140625 C 32.605469 29.980469 30.761719 32.171875 29.328125 34.628906 C 29.378906 34.652344 29.433594 34.707031 29.488281 34.800781 L 29.523438 34.84375 C 29.550781 34.949219 29.578125 35.042969 29.601562 35.148438 L 29.636719 35.183594 C 29.65625 35.359375 29.710938 35.363281 29.753906 35.507812 C 29.808594 35.507812 29.789062 35.496094 29.789062 35.5625 L 29.980469 35.929688 C 30.03125 35.929688 30.015625 35.917969 30.015625 35.976562 C 30.054688 36.136719 30.152344 36.265625 30.167969 36.453125 L 30.203125 36.5 C 30.214844 36.804688 30.320312 37.003906 30.277344 37.402344 C 30.265625 37.507812 30.226562 37.6875 30.191406 37.804688 C 30.140625 37.980469 30.070312 38.027344 30.054688 38.195312 L 30.015625 38.234375 C 30.003906 38.398438 29.953125 38.410156 29.945312 38.574219 L 29.902344 38.675781 L 29.910156 38.761719 L 29.867188 38.824219 C 29.867188 39.011719 29.835938 39.023438 29.828125 39.214844 C 29.820312 39.394531 29.789062 39.449219 29.789062 39.589844 L 29.867188 40.351562 L 29.910156 40.417969 L 29.902344 40.503906 L 29.945312 40.605469 C 29.953125 40.769531 30.003906 40.78125 30.015625 40.945312 L 30.054688 40.984375 C 30.070312 41.144531 30.148438 41.234375 30.167969 41.425781 L 30.203125 41.472656 C 30.207031 41.601562 30.226562 41.648438 30.238281 41.746094 C 30.253906 41.871094 30.253906 41.953125 30.261719 42.003906 C 30.285156 42.21875 30.339844 42.304688 30.507812 42.414062 L 30.546875 42.453125 C 30.832031 42.519531 31.234375 42.742188 31.261719 43.050781 C 31.28125 43.082031 31.28125 43.070312 31.296875 43.132812 C 31.300781 43.140625 31.300781 43.183594 31.300781 43.203125 C 31.300781 43.527344 31.339844 43.734375 31.4375 43.96875 C 31.507812 44.132812 31.527344 44.117188 31.628906 44.234375 C 31.710938 44.328125 31.773438 44.417969 31.828125 44.523438 L 31.867188 44.5625 C 31.953125 45.609375 31.902344 45.117188 32.292969 45.492188 C 32.410156 45.605469 32.429688 45.621094 32.507812 45.765625 L 32.542969 45.804688 C 32.574219 46.128906 32.695312 46.390625 32.875 46.640625 L 32.960938 46.746094 L 33 46.78125 L 33.1875 46.972656 L 33.222656 47.007812 C 33.28125 47.035156 33.253906 47.046875 33.324219 47.027344 C 33.488281 46.976562 33.371094 47.039062 33.414062 46.933594 L 33.414062 46.859375 C 33.34375 46.757812 33.253906 46.65625 33.1875 46.554688 L 33.152344 46.519531 L 33.148438 46.480469 L 33.109375 46.441406 C 33.074219 46.363281 33.046875 46.292969 33.035156 46.183594 L 33 46.140625 L 32.996094 45.949219 L 32.960938 45.839844 C 32.949219 45.707031 32.914062 45.660156 32.886719 45.539062 L 32.847656 45.5 L 32.847656 45.472656 L 32.808594 45.425781 C 32.757812 45.210938 32.519531 44.855469 32.355469 44.75 L 32.320312 44.710938 L 32.28125 44.675781 C 32.226562 44.675781 32.238281 44.6875 32.238281 44.636719 C 32.175781 44.53125 32.070312 44.386719 32.054688 44.234375 C 32 44.234375 32.015625 44.246094 32.015625 44.183594 C 32.015625 44.046875 31.96875 43.90625 31.957031 43.753906 C 31.953125 43.691406 31.953125 43.640625 31.972656 43.578125 C 32.015625 43.4375 31.996094 43.46875 32.085938 43.429688 C 32.09375 43.421875 32.179688 43.296875 32.179688 43.429688 C 32.308594 43.472656 32.351562 43.597656 32.355469 43.761719 L 32.394531 43.808594 L 32.394531 43.878906 L 32.429688 43.921875 L 32.507812 44.171875 C 32.5625 44.171875 32.546875 44.160156 32.546875 44.222656 C 32.578125 44.363281 32.734375 44.578125 32.808594 44.707031 C 32.863281 44.707031 32.847656 44.695312 32.847656 44.75 C 32.941406 44.890625 32.960938 44.914062 33.082031 45.039062 C 33.148438 45.105469 33.269531 45.253906 33.3125 45.335938 C 33.527344 45.726562 33.203125 45.648438 33.714844 45.992188 L 33.753906 46.027344 L 33.789062 46.066406 L 34.015625 46.292969 L 34.054688 46.328125 L 34.097656 46.367188 C 34.175781 46.5 34.28125 46.613281 34.367188 46.769531 C 34.445312 46.90625 34.550781 47.097656 34.582031 47.246094 L 34.628906 47.308594 C 34.628906 47.472656 34.691406 47.546875 34.695312 47.722656 L 34.734375 47.761719 C 34.734375 48.070312 34.875 48.316406 35.027344 48.484375 C 35.164062 48.640625 35.410156 48.847656 35.640625 48.886719 L 35.707031 48.929688 C 35.789062 48.964844 35.929688 49.019531 36.015625 49.042969 L 36.058594 49.078125 C 36.167969 49.105469 36.167969 49.128906 36.28125 49.15625 L 36.324219 49.191406 C 36.460938 49.226562 36.480469 49.273438 36.621094 49.304688 L 36.660156 49.34375 L 37.148438 49.570312 L 37.1875 49.605469 C 37.273438 49.652344 37.339844 49.6875 37.417969 49.75 C 37.519531 49.832031 37.507812 49.847656 37.636719 49.910156 C 37.902344 50.035156 38.011719 49.96875 38.28125 49.90625 L 38.355469 49.871094 L 38.734375 49.871094 C 38.796875 49.871094 38.785156 49.851562 38.785156 49.90625 L 38.960938 49.980469 L 38.996094 50.019531 L 39.035156 50.058594 L 39.078125 50.09375 C 39.140625 50.230469 39.179688 50.3125 39.261719 50.433594 L 39.296875 50.472656 L 39.339844 50.507812 L 39.378906 50.546875 L 39.410156 50.585938 C 39.519531 50.65625 39.503906 50.675781 39.640625 50.734375 C 39.730469 50.765625 39.835938 50.804688 39.941406 50.8125 L 40.03125 50.847656 L 40.089844 50.839844 L 40.15625 50.886719 C 40.355469 50.890625 40.425781 50.957031 40.621094 50.960938 L 40.65625 51 C 40.90625 51.019531 41.085938 51.175781 41.296875 51.226562 L 41.335938 51.261719 C 41.433594 51.328125 41.441406 51.324219 41.519531 51.417969 C 41.589844 51.5 41.605469 51.511719 41.636719 51.628906 C 41.695312 51.628906 41.675781 51.617188 41.675781 51.675781 C 41.707031 51.804688 41.753906 51.871094 41.789062 52.015625 L 41.824219 52.054688 C 41.84375 52.21875 41.882812 52.292969 41.964844 52.40625 C 42.046875 52.515625 42.101562 52.582031 42.242188 52.621094 L 42.28125 52.65625 L 42.316406 52.65625 L 42.355469 52.695312 C 42.433594 52.734375 42.445312 52.746094 42.542969 52.769531 L 42.582031 52.808594 C 42.789062 52.855469 42.90625 52.980469 43.109375 53.035156 L 43.144531 53.070312 C 43.234375 53.117188 43.300781 53.15625 43.414062 53.183594 L 43.449219 53.222656 C 43.574219 53.25 43.769531 53.355469 43.890625 53.421875 C 44.054688 53.507812 44.101562 53.664062 44.28125 53.710938 L 44.355469 53.710938 C 44.492188 53.675781 44.433594 53.671875 44.542969 53.597656 C 44.542969 53.292969 44.515625 53.105469 44.8125 53.070312 C 45 53.050781 45.285156 53.152344 45.335938 53.332031 L 45.375 53.371094 C 45.371094 53.5 45.359375 53.558594 45.292969 53.628906 C 45.210938 53.714844 45.183594 53.695312 45.0625 53.738281 C 44.816406 53.828125 44.875 53.96875 44.597656 53.972656 L 44.507812 54.011719 C 44.347656 54.054688 44.285156 54.152344 44.28125 54.351562 L 44.242188 54.390625 C 44.214844 54.5 44.175781 54.5625 44.128906 54.652344 L 44.089844 54.691406 C 43.996094 54.835938 43.894531 54.890625 43.789062 55.066406 C 43.714844 55.199219 43.59375 55.402344 43.609375 55.59375 L 43.5625 55.65625 L 43.5625 56.152344 L 43.601562 56.234375 L 43.609375 56.835938 L 43.5625 56.898438 L 43.5625 56.988281 C 43.5625 57.042969 43.578125 57.03125 43.523438 57.03125 C 43.503906 57.121094 43.488281 57.140625 43.449219 57.210938 L 43.414062 57.25 C 43.300781 57.414062 43.15625 57.484375 43.042969 57.671875 C 43.027344 57.699219 42.984375 57.777344 42.972656 57.789062 C 42.84375 57.925781 42.679688 57.800781 42.621094 58.042969 L 42.582031 58.082031 L 42.582031 58.222656 C 42.609375 58.265625 42.601562 58.226562 42.605469 58.296875 C 42.609375 58.351562 42.648438 58.34375 42.582031 58.34375 C 42.574219 58.738281 42.242188 58.761719 42.328125 59.078125 C 42.363281 59.207031 42.414062 59.234375 42.542969 59.246094 L 42.582031 59.285156 L 42.621094 59.285156 L 42.660156 59.320312 L 42.699219 59.359375 C 42.683594 59.613281 42.527344 59.644531 42.355469 59.734375 L 42.316406 59.773438 C 42.265625 59.851562 42.191406 59.929688 42.261719 60.089844 C 42.332031 60.257812 42.390625 60.105469 42.390625 60.375 L 42.355469 60.414062 L 42.355469 60.5625 L 42.390625 60.601562 L 42.429688 60.640625 L 42.46875 60.675781 C 42.570312 60.699219 42.578125 60.710938 42.65625 60.753906 L 42.699219 60.789062 C 42.890625 60.925781 43.082031 61.046875 43.230469 61.234375 C 43.34375 61.378906 43.515625 61.683594 43.5625 61.882812 L 43.601562 61.917969 C 43.632812 62.050781 43.761719 62.296875 43.828125 62.40625 C 43.875 62.484375 43.929688 62.558594 43.976562 62.636719 C 44.039062 62.738281 44.070312 62.773438 44.128906 62.863281 L 44.164062 62.898438 C 44.457031 63.320312 44.839844 63.699219 45.261719 63.992188 L 45.300781 64.027344 C 45.464844 64.140625 45.519531 64.191406 45.714844 64.289062 L 45.75 64.328125 L 46.054688 64.480469 C 46.121094 64.480469 46.109375 64.460938 46.109375 64.515625 C 46.230469 64.554688 46.257812 64.597656 46.394531 64.632812 L 46.433594 64.667969 C 46.707031 64.734375 47.011719 65.144531 47.035156 65.472656 C 47.113281 65.566406 47.070312 66.046875 47.070312 66.210938 L 47.046875 66.953125 C 47.046875 66.945312 47.039062 66.96875 47.035156 66.980469 L 47.035156 67.152344 L 46.996094 67.191406 C 46.992188 67.386719 46.9375 67.394531 46.917969 67.566406 L 46.882812 67.601562 C 46.855469 67.722656 46.835938 67.714844 46.808594 67.832031 L 46.769531 67.867188 C 46.722656 67.972656 46.660156 68.136719 46.65625 68.285156 L 46.65625 68.699219 C 46.660156 68.886719 46.691406 68.886719 46.699219 69.074219 C 46.703125 69.277344 46.65625 69.328125 46.660156 69.488281 L 46.621094 69.558594 C 46.570312 69.65625 46.535156 69.6875 46.503906 69.789062 L 46.46875 69.824219 C 46.4375 69.964844 46.40625 69.933594 46.390625 70.089844 L 46.355469 70.175781 L 46.355469 70.277344 L 46.316406 70.351562 L 46.316406 70.769531 L 46.355469 70.84375 L 46.355469 70.945312 L 46.394531 71.03125 C 46.421875 71.152344 46.457031 71.199219 46.46875 71.328125 L 46.503906 71.410156 C 46.507812 71.648438 46.546875 71.628906 46.515625 71.828125 C 46.496094 71.945312 46.472656 72.003906 46.445312 72.066406 C 47.230469 72.214844 48.03125 72.328125 48.839844 72.398438 C 48.820312 72.265625 48.796875 72.335938 48.84375 72.125 C 48.84375 72.058594 48.824219 72.070312 48.882812 72.070312 C 49.082031 71.867188 49.285156 71.570312 49.667969 71.558594 L 49.75 71.523438 C 49.933594 71.519531 49.953125 71.507812 50.070312 71.425781 C 50.214844 71.328125 50.203125 71.324219 50.28125 71.183594 L 50.316406 71.144531 L 50.351562 71.070312 L 50.394531 71.03125 L 50.46875 70.957031 L 50.644531 70.882812 C 50.644531 70.824219 50.632812 70.84375 50.695312 70.84375 L 50.765625 70.84375 C 50.796875 70.828125 50.785156 70.824219 50.847656 70.8125 L 51.089844 70.832031 C 51.09375 70.824219 51.105469 70.839844 51.113281 70.84375 L 51.183594 70.84375 C 51.246094 70.84375 51.234375 70.824219 51.234375 70.882812 L 51.5625 70.882812 L 51.601562 70.84375 C 51.871094 70.820312 51.984375 70.601562 52.113281 70.414062 C 52.238281 70.230469 52.457031 70.074219 52.691406 70.015625 L 52.730469 69.980469 C 52.847656 69.953125 52.84375 69.929688 52.953125 69.902344 L 52.996094 69.863281 C 53.136719 69.828125 53.042969 69.828125 53.1875 69.789062 L 53.222656 69.753906 C 53.320312 69.699219 53.386719 69.652344 53.484375 69.601562 L 53.523438 69.5625 C 53.90625 69.324219 54.332031 68.886719 54.582031 68.507812 L 54.617188 68.46875 L 54.65625 68.433594 C 54.710938 68.398438 54.746094 68.367188 54.8125 68.328125 C 54.894531 68.28125 54.921875 68.28125 54.996094 68.246094 L 55.035156 68.207031 C 55.175781 68.171875 55.1875 68.128906 55.222656 67.980469 L 55.261719 67.929688 L 55.257812 67.566406 L 55.296875 67.527344 C 55.308594 67.40625 55.328125 67.386719 55.371094 67.304688 L 55.410156 67.265625 L 55.5625 67.117188 L 55.601562 67.074219 L 55.671875 67.039062 L 55.710938 67.003906 L 55.742188 67.003906 L 55.789062 66.96875 C 55.914062 66.933594 55.972656 66.894531 56.128906 66.890625 L 56.164062 66.855469 L 56.246094 66.851562 L 56.316406 66.816406 C 56.476562 66.800781 56.496094 66.753906 56.65625 66.738281 L 56.695312 66.703125 C 56.847656 66.667969 56.929688 66.59375 57.136719 66.589844 C 57.191406 66.558594 57.085938 66.585938 57.222656 66.554688 C 57.246094 66.550781 57.308594 66.550781 57.335938 66.550781 C 57.699219 66.546875 57.753906 66.515625 57.972656 66.363281 L 58.015625 66.324219 L 58.050781 66.289062 L 58.085938 66.25 L 58.128906 66.210938 C 58.199219 66.109375 58.265625 66.035156 58.277344 65.875 C 58.277344 65.8125 58.261719 65.824219 58.316406 65.824219 C 58.339844 65.746094 58.359375 65.679688 58.390625 65.609375 C 58.390625 65.550781 58.375 65.5625 58.429688 65.5625 C 58.503906 65.449219 58.554688 65.40625 58.617188 65.308594 L 58.65625 65.269531 C 58.707031 65.195312 58.753906 65.121094 58.808594 65.046875 C 58.808594 64.984375 58.789062 65 58.84375 65 C 58.914062 64.886719 59.074219 64.644531 59.109375 64.515625 C 59.109375 64.453125 59.089844 64.464844 59.144531 64.464844 C 59.175781 64.367188 59.195312 64.363281 59.222656 64.253906 C 59.222656 64.1875 59.203125 64.199219 59.257812 64.199219 L 59.261719 64.140625 L 59.296875 64.105469 C 59.324219 63.980469 59.363281 63.9375 59.375 63.800781 L 59.410156 63.726562 C 59.425781 63.550781 59.480469 63.441406 59.488281 63.238281 C 59.488281 63.203125 59.488281 63.160156 59.492188 63.128906 C 59.503906 63.054688 59.503906 63.085938 59.523438 63.050781 L 59.523438 62.972656 L 59.5625 62.898438 C 59.582031 62.808594 59.601562 62.746094 59.636719 62.671875 L 59.675781 62.632812 L 59.710938 62.558594 L 59.746094 62.519531 L 59.789062 62.484375 L 59.824219 62.449219 C 60.007812 62.320312 60.074219 62.191406 60.292969 62.046875 C 60.566406 61.871094 60.578125 61.863281 60.730469 61.582031 L 60.769531 61.539062 C 60.808594 61.378906 60.878906 61.277344 60.882812 61.089844 C 60.882812 60.910156 60.882812 61.015625 60.917969 60.976562 L 60.917969 60.355469 C 60.863281 60.355469 60.882812 60.367188 60.882812 60.300781 L 60.84375 60.226562 L 60.804688 60.1875 L 60.769531 60.148438 L 60.730469 60.113281 C 60.679688 60.082031 60.691406 60.085938 60.617188 60.074219 C 60.527344 60.074219 60.410156 60.097656 60.367188 60.035156 C 60.050781 60.03125 59.964844 59.925781 59.777344 59.785156 C 59.644531 59.683594 59.378906 59.519531 59.183594 59.515625 L 59.117188 59.472656 C 58.925781 59.46875 58.769531 59.402344 58.582031 59.394531 L 58.5 59.359375 L 58.429688 59.359375 C 58.367188 59.359375 58.378906 59.375 58.378906 59.320312 C 58.195312 59.304688 57.765625 59.128906 57.613281 59.046875 C 57.402344 58.933594 57.152344 58.734375 56.921875 58.679688 C 56.855469 58.679688 56.867188 58.699219 56.867188 58.644531 L 56.617188 58.570312 C 56.558594 58.570312 56.570312 58.585938 56.570312 58.53125 L 56.503906 58.53125 C 56.441406 58.53125 56.453125 58.550781 56.453125 58.492188 C 56.296875 58.476562 56.230469 58.417969 56.050781 58.421875 L 55.945312 58.378906 C 55.757812 58.375 55.621094 58.339844 55.371094 58.34375 C 55.085938 58.347656 54.964844 58.398438 54.957031 58.117188 L 54.996094 58.078125 C 55.183594 57.695312 54.765625 57.71875 54.730469 57.335938 L 54.695312 57.289062 L 54.695312 57.25 L 54.65625 57.175781 C 54.570312 56.800781 54.203125 56.476562 53.902344 56.308594 L 53.863281 56.269531 C 53.773438 56.222656 53.765625 56.207031 53.636719 56.195312 L 53.601562 56.15625 C 53.320312 56.136719 53.230469 56.039062 52.867188 56.101562 C 52.371094 56.1875 52.089844 56.101562 51.703125 55.71875 C 51.476562 55.488281 51.503906 55.367188 51.335938 55.253906 L 51.292969 55.21875 C 51.195312 55.164062 51.136719 55.117188 50.996094 55.101562 C 50.960938 55.101562 50.917969 55.105469 50.882812 55.097656 C 50.722656 55.074219 50.863281 55.101562 50.792969 55.066406 C 50.664062 55.0625 50.59375 55.03125 50.507812 54.992188 L 50.46875 54.957031 L 50.429688 54.914062 C 50.367188 54.789062 50.351562 54.632812 50.226562 54.550781 C 50.171875 54.515625 49.871094 54.433594 49.789062 54.425781 L 49.75 54.386719 C 49.671875 54.335938 49.632812 54.300781 49.523438 54.273438 L 49.488281 54.238281 C 49.320312 54.238281 49.128906 54.222656 48.984375 54.261719 C 48.738281 54.328125 48.796875 54.332031 48.542969 54.277344 L 48.503906 54.238281 C 48.429688 54.1875 48.40625 54.171875 48.316406 54.125 C 48.257812 54.125 48.269531 54.140625 48.269531 54.085938 C 48.195312 54.066406 48.011719 54.019531 47.941406 54.019531 C 47.835938 54.023438 47.730469 54.078125 47.601562 54.085938 C 47.5625 54.148438 47.597656 54.148438 47.558594 54.085938 C 47.386719 54.074219 47.390625 53.992188 47.261719 53.898438 C 47.164062 53.824219 47.046875 53.757812 46.882812 53.746094 C 46.523438 53.722656 46.359375 53.90625 46.242188 54.125 L 46.203125 54.171875 L 46.203125 54.3125 L 46.167969 54.351562 L 46.167969 54.421875 L 46.203125 54.464844 L 46.203125 54.652344 C 46.117188 54.648438 46.03125 54.667969 45.917969 54.523438 C 45.867188 54.457031 45.886719 54.511719 45.863281 54.414062 L 45.820312 54.351562 C 45.835938 54.132812 45.789062 54.074219 45.789062 53.863281 C 45.785156 53.640625 45.753906 53.539062 45.75 53.371094 L 45.714844 53.335938 C 45.6875 53.230469 45.652344 53.152344 45.59375 53.078125 C 45.515625 52.972656 45.582031 53.046875 45.503906 52.980469 C 45.449219 52.933594 45.425781 52.917969 45.375 52.882812 L 45.335938 52.84375 L 45.296875 52.84375 C 45.242188 52.84375 45.253906 52.859375 45.253906 52.808594 C 45.164062 52.785156 45.15625 52.773438 45.035156 52.769531 L 44.65625 52.769531 C 44.5 52.78125 44.53125 52.8125 44.390625 52.84375 L 44.355469 52.878906 C 44.074219 52.949219 43.972656 53.023438 43.675781 52.882812 L 43.636719 52.84375 C 43.410156 52.691406 43.414062 52.695312 43.261719 52.46875 L 43.222656 52.429688 C 43.167969 52.328125 43.140625 52.261719 43.109375 52.128906 L 43.074219 52.09375 C 43.074219 51.816406 43.007812 51.710938 43.058594 51.402344 C 43.109375 51.109375 43.148438 51.054688 43.148438 50.707031 C 43.09375 50.707031 43.109375 50.71875 43.109375 50.660156 C 43.097656 50.511719 43.046875 50.449219 42.972656 50.347656 C 42.875 50.21875 42.855469 50.214844 42.734375 50.132812 L 42.695312 50.09375 C 42.539062 50.058594 42.589844 50.023438 42.394531 50.019531 L 41.601562 50.019531 C 41.542969 50.019531 41.550781 50.019531 41.5 50.007812 C 41.492188 50.007812 41.480469 50.007812 41.476562 49.996094 C 41.472656 49.988281 41.460938 49.988281 41.453125 49.984375 L 41.375 49.984375 L 41.335938 49.945312 C 41.023438 49.871094 41.003906 49.59375 41.035156 49.195312 C 41.046875 49.066406 41.082031 48.871094 41.117188 48.746094 C 41.15625 48.605469 41.226562 48.464844 41.261719 48.324219 L 41.296875 48.289062 C 41.382812 48.132812 41.421875 48.085938 41.53125 47.953125 C 41.65625 47.804688 41.691406 47.792969 41.636719 47.574219 C 41.273438 47.488281 40.898438 47.542969 40.570312 47.609375 L 40.507812 47.65625 C 40.320312 47.683594 40.207031 47.835938 40.167969 48.023438 C 40.167969 48.109375 40.191406 48.160156 40.128906 48.199219 C 40.117188 48.382812 40.0625 48.519531 39.980469 48.628906 C 39.898438 48.742188 39.765625 48.839844 39.585938 48.851562 C 39.519531 48.910156 39.523438 48.890625 39.414062 48.890625 L 39.035156 48.890625 C 38.980469 48.890625 38.980469 48.890625 38.929688 48.878906 C 38.921875 48.878906 38.90625 48.878906 38.902344 48.867188 C 38.894531 48.855469 38.886719 48.859375 38.875 48.851562 C 38.429688 48.851562 38.042969 48.554688 37.867188 48.289062 L 37.828125 48.25 C 37.742188 48.125 37.679688 48.0625 37.601562 47.914062 L 37.5625 47.875 L 37.414062 47.546875 C 37.359375 47.546875 37.375 47.558594 37.375 47.496094 C 37.347656 47.378906 37.308594 47.238281 37.300781 47.105469 L 37.253906 47.007812 L 37.261719 46.441406 L 37.300781 46.363281 C 37.335938 45.953125 37.667969 45.910156 37.675781 45.464844 C 37.675781 45.402344 37.660156 45.414062 37.714844 45.414062 L 37.714844 45.351562 L 37.753906 45.308594 L 37.789062 45.164062 L 37.828125 45.121094 L 37.828125 45.085938 L 37.867188 45.050781 C 38.019531 44.753906 38.25 44.527344 38.542969 44.371094 L 38.582031 44.335938 C 38.699219 44.308594 38.691406 44.285156 38.8125 44.257812 L 38.847656 44.222656 L 38.878906 44.222656 L 38.960938 44.1875 C 39.175781 44.160156 39.257812 44.105469 39.523438 44.105469 C 39.734375 44.105469 39.941406 44.109375 40.152344 44.109375 L 40.242188 44.070312 C 40.414062 44.066406 40.441406 44.027344 40.585938 43.996094 L 40.621094 43.960938 C 40.742188 43.929688 40.855469 43.863281 40.953125 43.808594 L 40.996094 43.769531 C 41.398438 43.554688 41.660156 43.511719 42.089844 43.730469 L 42.132812 43.769531 C 42.375 43.941406 42.398438 43.871094 42.695312 43.84375 L 42.734375 43.808594 L 42.996094 43.808594 L 43.035156 43.84375 C 43.175781 43.921875 43.253906 44 43.296875 44.175781 L 43.335938 44.222656 C 43.382812 44.414062 43.414062 44.457031 43.414062 44.707031 L 43.449219 44.75 L 43.449219 44.828125 L 43.484375 44.863281 C 43.5 45.007812 43.617188 45.242188 43.675781 45.351562 L 43.714844 45.390625 C 43.839844 45.625 43.949219 45.734375 44.167969 45.878906 L 44.210938 45.914062 C 44.375 45.910156 44.410156 45.867188 44.507812 45.804688 L 44.507812 45.121094 L 44.46875 45.050781 L 44.46875 44.914062 L 44.429688 44.824219 C 44.425781 44.671875 44.382812 44.574219 44.355469 44.445312 L 44.320312 44.410156 C 44.308594 44.289062 44.246094 44.121094 44.203125 44.027344 L 44.164062 43.957031 C 44.152344 43.765625 44.089844 43.773438 44.089844 43.519531 L 44.054688 43.429688 L 44.054688 43.316406 C 44.054688 43.167969 44.0625 43.234375 44.089844 43.199219 C 44.09375 43.066406 44.125 42.992188 44.164062 42.902344 L 44.203125 42.867188 C 44.285156 42.746094 44.390625 42.625 44.515625 42.535156 C 44.621094 42.460938 44.808594 42.359375 44.921875 42.300781 L 44.960938 42.265625 C 45.292969 42.039062 45.578125 41.777344 45.785156 41.433594 C 45.785156 41.382812 45.773438 41.394531 45.828125 41.394531 C 45.910156 41.242188 46.046875 41.054688 46.089844 40.871094 L 46.128906 40.832031 C 46.164062 40.683594 46.234375 40.570312 46.234375 40.417969 Z M 42.695312 27.503906 C 42.644531 27.546875 42.652344 27.554688 42.566406 27.570312 C 42.386719 27.609375 42.449219 27.574219 42.460938 27.539062 L 42.507812 27.503906 L 42.695312 27.503906 " clip-rule="nonzero"/></clipPath><radialGradient gradientTransform="matrix(1.001003, 0, 0, 0.998997, 43.092439, 38.867986)" gradientUnits="userSpaceOnUse" r="33.593086" cx="0" id="52d58c94a5" cy="0" fx="0" fy="0"><stop stop-opacity="1" stop-color="rgb(99.804688%, 99.804688%, 99.804688%)" offset="0"/><stop stop-opacity="1" stop-color="rgb(99.539185%, 99.539185%, 99.539185%)" offset="0.015625"/><stop stop-opacity="1" stop-color="rgb(99.334717%, 99.334717%, 99.334717%)" offset="0.0195312"/><stop stop-opacity="1" stop-color="rgb(99.133301%, 99.133301%, 99.133301%)" offset="0.03125"/><stop stop-opacity="1" stop-color="rgb(98.933411%, 98.933411%, 98.933411%)" offset="0.0429688"/><stop stop-opacity="1" stop-color="rgb(98.736572%, 98.736572%, 98.736572%)" offset="0.0546875"/><stop stop-opacity="1" stop-color="rgb(98.603821%, 98.603821%, 98.603821%)" offset="0.0664062"/><stop stop-opacity="1" stop-color="rgb(98.461914%, 98.461914%, 98.461914%)" offset="0.0703125"/><stop stop-opacity="1" stop-color="rgb(98.196411%, 98.196411%, 98.196411%)" offset="0.0742188"/><stop stop-opacity="1" stop-color="rgb(97.999573%, 97.999573%, 97.999573%)" offset="0.0859375"/><stop stop-opacity="1" stop-color="rgb(97.93396%, 97.93396%, 97.93396%)" offset="0.0976562"/><stop stop-opacity="1" stop-color="rgb(97.73407%, 97.73407%, 97.73407%)" offset="0.101562"/><stop stop-opacity="1" stop-color="rgb(97.549438%, 97.549438%, 97.549438%)" offset="0.113281"/><stop stop-opacity="1" stop-color="rgb(97.337341%, 97.337341%, 97.337341%)" offset="0.125"/><stop stop-opacity="1" stop-color="rgb(97.036743%, 97.036743%, 97.036743%)" offset="0.136719"/><stop stop-opacity="1" stop-color="rgb(96.829224%, 96.829224%, 96.829224%)" offset="0.148438"/><stop stop-opacity="1" stop-color="rgb(96.629333%, 96.629333%, 96.629333%)" offset="0.160156"/><stop stop-opacity="1" stop-color="rgb(96.434021%, 96.434021%, 96.434021%)" offset="0.171875"/><stop stop-opacity="1" stop-color="rgb(96.296692%, 96.296692%, 96.296692%)" offset="0.183594"/><stop stop-opacity="1" stop-color="rgb(96.156311%, 96.156311%, 96.156311%)" offset="0.1875"/><stop stop-opacity="1" stop-color="rgb(95.892334%, 95.892334%, 95.892334%)" offset="0.191406"/><stop stop-opacity="1" stop-color="rgb(95.506287%, 95.506287%, 95.506287%)" offset="0.214844"/><stop stop-opacity="1" stop-color="rgb(95.301819%, 95.301819%, 95.301819%)" offset="0.226562"/><stop stop-opacity="1" stop-color="rgb(95.094299%, 95.094299%, 95.094299%)" offset="0.238281"/><stop stop-opacity="1" stop-color="rgb(94.703674%, 94.703674%, 94.703674%)" offset="0.25"/><stop stop-opacity="1" stop-color="rgb(94.424438%, 94.424438%, 94.424438%)" offset="0.261719"/><stop stop-opacity="1" stop-color="rgb(94.258118%, 94.258118%, 94.258118%)" offset="0.269531"/><stop stop-opacity="1" stop-color="rgb(94.094849%, 94.094849%, 94.094849%)" offset="0.277344"/><stop stop-opacity="1" stop-color="rgb(93.937683%, 93.937683%, 93.937683%)" offset="0.285156"/><stop stop-opacity="1" stop-color="rgb(93.782043%, 93.782043%, 93.782043%)" offset="0.292969"/><stop stop-opacity="1" stop-color="rgb(93.621826%, 93.621826%, 93.621826%)" offset="0.300781"/><stop stop-opacity="1" stop-color="rgb(93.457031%, 93.457031%, 93.457031%)" offset="0.308594"/><stop stop-opacity="1" stop-color="rgb(93.293762%, 93.293762%, 93.293762%)" offset="0.316406"/><stop stop-opacity="1" stop-color="rgb(93.136597%, 93.136597%, 93.136597%)" offset="0.324219"/><stop stop-opacity="1" stop-color="rgb(92.979431%, 92.979431%, 92.979431%)" offset="0.332031"/><stop stop-opacity="1" stop-color="rgb(92.819214%, 92.819214%, 92.819214%)" offset="0.339844"/><stop stop-opacity="1" stop-color="rgb(92.556763%, 92.556763%, 92.556763%)" offset="0.347656"/><stop stop-opacity="1" stop-color="rgb(92.190552%, 92.190552%, 92.190552%)" offset="0.367188"/><stop stop-opacity="1" stop-color="rgb(91.902161%, 91.902161%, 91.902161%)" offset="0.386719"/><stop stop-opacity="1" stop-color="rgb(91.699219%, 91.699219%, 91.699219%)" offset="0.402344"/><stop stop-opacity="1" stop-color="rgb(91.50238%, 91.50238%, 91.50238%)" offset="0.417969"/><stop stop-opacity="1" stop-color="rgb(91.300964%, 91.300964%, 91.300964%)" offset="0.425781"/><stop stop-opacity="1" stop-color="rgb(91.093445%, 91.093445%, 91.093445%)" offset="0.433594"/><stop stop-opacity="1" stop-color="rgb(90.794373%, 90.794373%, 90.794373%)" offset="0.441406"/><stop stop-opacity="1" stop-color="rgb(90.403748%, 90.403748%, 90.403748%)" offset="0.457031"/><stop stop-opacity="1" stop-color="rgb(90.19928%, 90.19928%, 90.19928%)" offset="0.472656"/><stop stop-opacity="1" stop-color="rgb(89.996338%, 89.996338%, 89.996338%)" offset="0.488281"/><stop stop-opacity="1" stop-color="rgb(89.605713%, 89.605713%, 89.605713%)" offset="0.503906"/><stop stop-opacity="1" stop-color="rgb(89.399719%, 89.399719%, 89.399719%)" offset="0.515625"/><stop stop-opacity="1" stop-color="rgb(89.193726%, 89.193726%, 89.193726%)" offset="0.527344"/><stop stop-opacity="1" stop-color="rgb(88.999939%, 88.999939%, 88.999939%)" offset="0.539062"/><stop stop-opacity="1" stop-color="rgb(88.807678%, 88.807678%, 88.807678%)" offset="0.550781"/><stop stop-opacity="1" stop-color="rgb(88.545227%, 88.545227%, 88.545227%)" offset="0.5625"/><stop stop-opacity="1" stop-color="rgb(88.336182%, 88.336182%, 88.336182%)" offset="0.566406"/><stop stop-opacity="1" stop-color="rgb(88.134766%, 88.134766%, 88.134766%)" offset="0.578125"/><stop stop-opacity="1" stop-color="rgb(87.88147%, 87.88147%, 87.88147%)" offset="0.589844"/><stop stop-opacity="1" stop-color="rgb(87.528992%, 87.528992%, 87.528992%)" offset="0.613281"/><stop stop-opacity="1" stop-color="rgb(87.193298%, 87.193298%, 87.193298%)" offset="0.625"/><stop stop-opacity="1" stop-color="rgb(86.938477%, 86.938477%, 86.938477%)" offset="0.636719"/><stop stop-opacity="1" stop-color="rgb(86.773682%, 86.773682%, 86.773682%)" offset="0.644531"/><stop stop-opacity="1" stop-color="rgb(86.497498%, 86.497498%, 86.497498%)" offset="0.652344"/><stop stop-opacity="1" stop-color="rgb(86.219788%, 86.219788%, 86.219788%)" offset="0.671875"/><stop stop-opacity="1" stop-color="rgb(86.018372%, 86.018372%, 86.018372%)" offset="0.679688"/><stop stop-opacity="1" stop-color="rgb(85.800171%, 85.800171%, 85.800171%)" offset="0.699219"/><stop stop-opacity="1" stop-color="rgb(85.604858%, 85.604858%, 85.604858%)" offset="0.714844"/><stop stop-opacity="1" stop-color="rgb(85.403442%, 85.403442%, 85.403442%)" offset="0.722656"/><stop stop-opacity="1" stop-color="rgb(85.195923%, 85.195923%, 85.195923%)" offset="0.730469"/><stop stop-opacity="1" stop-color="rgb(84.896851%, 84.896851%, 84.896851%)" offset="0.738281"/><stop stop-opacity="1" stop-color="rgb(84.700012%, 84.700012%, 84.700012%)" offset="0.753906"/><stop stop-opacity="1" stop-color="rgb(84.634399%, 84.634399%, 84.634399%)" offset="0.765625"/><stop stop-opacity="1" stop-color="rgb(84.498596%, 84.498596%, 84.498596%)" offset="0.769531"/><stop stop-opacity="1" stop-color="rgb(84.358215%, 84.358215%, 84.358215%)" offset="0.773438"/><stop stop-opacity="1" stop-color="rgb(84.092712%, 84.092712%, 84.092712%)" offset="0.777344"/><stop stop-opacity="1" stop-color="rgb(83.706665%, 83.706665%, 83.706665%)" offset="0.789062"/><stop stop-opacity="1" stop-color="rgb(83.44574%, 83.44574%, 83.44574%)" offset="0.8125"/><stop stop-opacity="1" stop-color="rgb(83.235168%, 83.235168%, 83.235168%)" offset="0.816406"/><stop stop-opacity="1" stop-color="rgb(82.899475%, 82.899475%, 82.899475%)" offset="0.824219"/><stop stop-opacity="1" stop-color="rgb(82.698059%, 82.698059%, 82.698059%)" offset="0.84375"/><stop stop-opacity="1" stop-color="rgb(82.546997%, 82.546997%, 82.546997%)" offset="0.863281"/><stop stop-opacity="1" stop-color="rgb(82.2052%, 82.2052%, 82.2052%)" offset="0.878906"/><stop stop-opacity="1" stop-color="rgb(81.999207%, 81.999207%, 81.999207%)" offset="0.890625"/><stop stop-opacity="1" stop-color="rgb(81.793213%, 81.793213%, 81.793213%)" offset="0.902344"/><stop stop-opacity="1" stop-color="rgb(81.402588%, 81.402588%, 81.402588%)" offset="0.914062"/><stop stop-opacity="1" stop-color="rgb(81.103516%, 81.103516%, 81.103516%)" offset="0.933594"/><stop stop-opacity="1" stop-color="rgb(80.830383%, 80.830383%, 80.830383%)" offset="0.941406"/><stop stop-opacity="1" stop-color="rgb(80.488586%, 80.488586%, 80.488586%)" offset="0.953125"/><stop stop-opacity="1" stop-color="rgb(80.157471%, 80.157471%, 80.157471%)" offset="0.964844"/><stop stop-opacity="1" stop-color="rgb(79.998779%, 79.998779%, 79.998779%)" offset="1"/></radialGradient></defs><g clip-path="url(#024c4d86e2)"><path fill="#39b54a" d="M 69.890625 16.011719 C 70.664062 4.828125 60.015625 0.101562 60.015625 0.101562 C 54.285156 11.640625 62.175781 19.609375 65.9375 22.566406 C 66.066406 22.691406 66.210938 22.808594 66.371094 22.910156 C 87.972656 36.304688 101.800781 16.484375 101.800781 16.484375 C 88.84375 6.550781 76.820312 11.335938 69.890625 16.011719 " fill-opacity="1" fill-rule="nonzero"/></g><path fill="#231f20" d="M 77.707031 5.144531 L 77.703125 5.140625 Z M 77.707031 5.144531 " fill-opacity="1" fill-rule="nonzero"/><g clip-path="url(#6d33c435c0)"><path fill="#009245" d="M 101.503906 16.261719 C 88.875 6.789062 77.167969 11.222656 70.246094 15.785156 C 70.097656 15.882812 69.90625 15.769531 69.914062 15.597656 C 69.941406 14.972656 69.933594 14.367188 69.894531 13.78125 C 69.695312 11.851562 69.199219 9.828125 68.222656 7.875 C 66.105469 3.847656 62.574219 1.5 60.921875 0.570312 C 60.734375 0.46875 60.546875 0.371094 60.355469 0.273438 C 60.179688 0.390625 60.21875 0.359375 60.042969 0.480469 C 60.46875 5.949219 63.375 14.039062 65.757812 19.097656 C 65.789062 19.171875 65.78125 19.257812 65.734375 19.316406 C 65.375 19.777344 65.207031 20.328125 65.21875 20.875 C 65.222656 20.976562 65.289062 21.058594 65.386719 21.082031 C 65.753906 21.164062 66.214844 21.234375 66.75 21.292969 C 66.820312 21.296875 67.109375 21.316406 67.109375 21.316406 L 67.613281 21.390625 L 68.027344 21.410156 L 68.480469 21.429688 L 68.667969 21.429688 C 68.667969 21.429688 68.785156 21.429688 68.875 21.429688 C 76.691406 21.710938 92.652344 20.253906 101.457031 16.628906 C 101.609375 16.566406 101.636719 16.359375 101.503906 16.261719 M 78.730469 47.351562 C 78.730469 62.6875 66.304688 75.125 50.980469 75.125 C 35.65625 75.125 23.230469 62.6875 23.230469 47.351562 C 23.230469 32.015625 35.65625 19.582031 50.980469 19.582031 C 66.304688 19.582031 78.730469 32.015625 78.730469 47.351562 " fill-opacity="1" fill-rule="evenodd"/></g><path fill="#b2b2b2" d="M 69.929688 15.679688 C 69.917969 15.65625 69.914062 15.625 69.914062 15.597656 C 69.941406 14.972656 69.933594 14.367188 69.894531 13.78125 C 69.894531 13.777344 69.894531 13.777344 69.894531 13.773438 C 69.878906 13.566406 69.863281 13.359375 69.839844 13.15625 C 69.84375 13.152344 69.847656 13.148438 69.851562 13.148438 C 69.941406 13.949219 69.972656 14.796875 69.929688 15.679688 " fill-opacity="1" fill-rule="nonzero"/><path fill="#287e34" d="M 66.242188 22.785156 C 66.183594 22.75 66.125 22.710938 66.066406 22.664062 C 65.242188 22.023438 64.203125 21.132812 63.148438 20.007812 C 63.308594 19.0625 63.765625 18.183594 64.480469 17.492188 C 64.609375 17.367188 64.738281 17.242188 64.867188 17.121094 C 65.167969 17.820312 65.464844 18.480469 65.757812 19.097656 C 65.777344 19.144531 65.78125 19.191406 65.769531 19.238281 C 65.453125 19.628906 65.273438 20.089844 65.230469 20.558594 C 65.222656 20.664062 65.21875 20.769531 65.21875 20.875 C 65.21875 20.894531 65.222656 20.914062 65.226562 20.929688 C 65.269531 21.644531 65.617188 22.335938 66.242188 22.785156 M 69.894531 13.773438 C 69.875 13.570312 69.851562 13.371094 69.824219 13.167969 C 69.828125 13.164062 69.832031 13.160156 69.839844 13.15625 C 69.863281 13.359375 69.878906 13.566406 69.894531 13.773438 " fill-opacity="1" fill-rule="nonzero"/><path fill="#006630" d="M 65.226562 20.929688 C 65.222656 20.914062 65.21875 20.894531 65.21875 20.875 C 65.21875 20.769531 65.222656 20.664062 65.230469 20.558594 C 65.222656 20.683594 65.21875 20.804688 65.226562 20.929688 M 65.769531 19.238281 C 65.78125 19.191406 65.777344 19.144531 65.757812 19.097656 C 65.464844 18.480469 65.167969 17.820312 64.867188 17.121094 C 66.472656 15.601562 68.125 14.28125 69.824219 13.167969 C 69.851562 13.371094 69.875 13.570312 69.894531 13.773438 C 69.894531 13.777344 69.894531 13.777344 69.894531 13.78125 C 69.933594 14.367188 69.941406 14.972656 69.914062 15.597656 C 69.914062 15.625 69.917969 15.65625 69.929688 15.679688 C 69.929688 15.683594 69.925781 15.6875 69.925781 15.6875 C 68.613281 16.632812 67.292969 17.738281 65.964844 19.027344 C 65.894531 19.09375 65.832031 19.164062 65.769531 19.238281 " fill-opacity="1" fill-rule="nonzero"/><g clip-path="url(#c5385554ee)"><g clip-path="url(#e4c0fe0577)"><path fill="url(#52d58c94a5)" d="M 29.328125 22.121094 L 29.328125 72.398438 L 76.390625 72.398438 L 76.390625 22.121094 Z M 29.328125 22.121094 " fill-rule="nonzero"/></g></g><g fill="#009245" fill-opacity="1"><g transform="translate(83.842496, 57.131403)"><g><path d="M 1.28125 -23.554688 L 9.199219 -23.554688 L 9.199219 -19.996094 L 4.742188 -19.996094 L 4.742188 -13.8125 L 7.949219 -13.8125 L 7.949219 -10.03125 L 4.742188 -10.03125 L 4.742188 -3.558594 L 9.199219 -3.558594 L 9.199219 0 L 1.28125 0 Z M 1.28125 -23.554688 "/></g></g></g><g fill="#009245" fill-opacity="1"><g transform="translate(93.680492, 57.131403)"><g><path d="M 10.289062 -8.074219 L 10.289062 -4.839844 C 10.253906 -3.878906 10.0625 -3.011719 9.710938 -2.277344 C 9.421875 -1.632812 8.972656 -1.027344 8.332031 -0.542969 C 7.691406 -0.03125 6.828125 0.257812 5.671875 0.257812 C 4.519531 0.257812 3.621094 -0.03125 2.980469 -0.542969 C 2.339844 -1.027344 1.921875 -1.632812 1.632812 -2.277344 C 1.28125 -3.011719 1.089844 -3.878906 1.058594 -4.839844 L 1.058594 -18.714844 C 1.089844 -19.644531 1.28125 -20.511719 1.632812 -21.246094 C 1.921875 -21.890625 2.339844 -22.53125 2.980469 -23.011719 C 3.621094 -23.492188 4.519531 -23.8125 5.671875 -23.8125 C 6.828125 -23.8125 7.691406 -23.492188 8.332031 -23.011719 C 8.972656 -22.53125 9.421875 -21.890625 9.710938 -21.246094 C 10.0625 -20.511719 10.253906 -19.644531 10.289062 -18.714844 L 10.289062 -15.480469 L 7.050781 -15.480469 L 7.050781 -18.714844 C 7.050781 -19.355469 6.890625 -19.804688 6.539062 -20.191406 C 6.378906 -20.351562 6.089844 -20.445312 5.738281 -20.445312 C 5.128906 -20.445312 4.839844 -19.996094 4.679688 -19.582031 C 4.582031 -19.324219 4.550781 -19.035156 4.519531 -18.714844 L 4.519531 -4.839844 C 4.550781 -4.167969 4.742188 -3.71875 5.0625 -3.363281 C 5.222656 -3.203125 5.449219 -3.109375 5.738281 -3.109375 C 6.472656 -3.109375 6.761719 -3.492188 6.921875 -3.972656 C 7.019531 -4.199219 7.050781 -4.488281 7.050781 -4.839844 L 7.050781 -8.074219 Z M 10.289062 -8.074219 "/></g></g></g><g fill="#009245" fill-opacity="1"><g transform="translate(104.768269, 57.131403)"><g><path d="M 10.289062 -4.839844 C 10.253906 -3.878906 10.0625 -3.011719 9.710938 -2.277344 C 9.421875 -1.632812 8.972656 -1.027344 8.332031 -0.542969 C 7.691406 -0.03125 6.828125 0.257812 5.671875 0.257812 C 4.519531 0.257812 3.621094 -0.03125 2.980469 -0.542969 C 2.339844 -1.027344 1.921875 -1.632812 1.632812 -2.277344 C 1.28125 -3.011719 1.089844 -3.878906 1.058594 -4.839844 L 1.058594 -18.714844 C 1.089844 -19.644531 1.28125 -20.511719 1.632812 -21.246094 C 1.921875 -21.890625 2.339844 -22.53125 2.980469 -23.011719 C 3.621094 -23.492188 4.519531 -23.8125 5.671875 -23.8125 C 6.828125 -23.8125 7.691406 -23.492188 8.332031 -23.011719 C 8.972656 -22.53125 9.421875 -21.890625 9.710938 -21.246094 C 10.0625 -20.511719 10.253906 -19.644531 10.289062 -18.714844 Z M 6.828125 -18.714844 C 6.828125 -19.355469 6.699219 -19.804688 6.378906 -20.191406 C 6.21875 -20.351562 5.960938 -20.445312 5.671875 -20.445312 C 5.0625 -20.445312 4.773438 -19.996094 4.648438 -19.582031 C 4.550781 -19.324219 4.519531 -19.035156 4.519531 -18.714844 L 4.519531 -4.839844 C 4.519531 -4.167969 4.679688 -3.71875 5 -3.363281 C 5.160156 -3.203125 5.382812 -3.109375 5.671875 -3.109375 C 6.28125 -3.109375 6.570312 -3.492188 6.699219 -3.972656 C 6.792969 -4.199219 6.828125 -4.488281 6.828125 -4.839844 Z M 6.828125 -18.714844 "/></g></g></g><g fill="#009245" fill-opacity="1"><g transform="translate(116.11241, 57.131403)"><g><path d="M 0.0625 -19.996094 L 0.0625 -23.554688 L 10.0625 -23.554688 L 10.0625 -19.996094 L 6.792969 -19.996094 L 6.792969 0 L 3.332031 0 L 3.332031 -19.996094 Z M 0.0625 -19.996094 "/></g></g></g><g fill="#009245" fill-opacity="1"><g transform="translate(126.238819, 57.131403)"><g><path d="M 1.28125 -23.554688 L 9.199219 -23.554688 L 9.199219 -19.996094 L 4.742188 -19.996094 L 4.742188 -13.8125 L 7.949219 -13.8125 L 7.949219 -10.03125 L 4.742188 -10.03125 L 4.742188 -3.558594 L 9.199219 -3.558594 L 9.199219 0 L 1.28125 0 Z M 1.28125 -23.554688 "/></g></g></g><g fill="#009245" fill-opacity="1"><g transform="translate(136.076816, 57.131403)"><g><path d="M 10.289062 -8.074219 L 10.289062 -4.839844 C 10.253906 -3.878906 10.0625 -3.011719 9.710938 -2.277344 C 9.421875 -1.632812 8.972656 -1.027344 8.332031 -0.542969 C 7.691406 -0.03125 6.828125 0.257812 5.671875 0.257812 C 4.519531 0.257812 3.621094 -0.03125 2.980469 -0.542969 C 2.339844 -1.027344 1.921875 -1.632812 1.632812 -2.277344 C 1.28125 -3.011719 1.089844 -3.878906 1.058594 -4.839844 L 1.058594 -18.714844 C 1.089844 -19.644531 1.28125 -20.511719 1.632812 -21.246094 C 1.921875 -21.890625 2.339844 -22.53125 2.980469 -23.011719 C 3.621094 -23.492188 4.519531 -23.8125 5.671875 -23.8125 C 6.828125 -23.8125 7.691406 -23.492188 8.332031 -23.011719 C 8.972656 -22.53125 9.421875 -21.890625 9.710938 -21.246094 C 10.0625 -20.511719 10.253906 -19.644531 10.289062 -18.714844 L 10.289062 -15.480469 L 7.050781 -15.480469 L 7.050781 -18.714844 C 7.050781 -19.355469 6.890625 -19.804688 6.539062 -20.191406 C 6.378906 -20.351562 6.089844 -20.445312 5.738281 -20.445312 C 5.128906 -20.445312 4.839844 -19.996094 4.679688 -19.582031 C 4.582031 -19.324219 4.550781 -19.035156 4.519531 -18.714844 L 4.519531 -4.839844 C 4.550781 -4.167969 4.742188 -3.71875 5.0625 -3.363281 C 5.222656 -3.203125 5.449219 -3.109375 5.738281 -3.109375 C 6.472656 -3.109375 6.761719 -3.492188 6.921875 -3.972656 C 7.019531 -4.199219 7.050781 -4.488281 7.050781 -4.839844 L 7.050781 -8.074219 Z M 10.289062 -8.074219 "/></g></g></g><g fill="#009245" fill-opacity="1"><g transform="translate(147.164592, 57.131403)"><g><path d="M 7.433594 -10.253906 L 4.742188 -10.253906 L 4.742188 0 L 1.28125 0 L 1.28125 -23.554688 L 4.742188 -23.554688 L 4.742188 -13.8125 L 7.433594 -13.8125 L 7.433594 -23.554688 L 10.894531 -23.554688 L 10.894531 0 L 7.433594 0 Z M 7.433594 -10.253906 "/></g></g></g><g fill="#152029" fill-opacity="1"><g transform="translate(84.034406, 67.552786)"><g><path d="M 0.484375 -6.578125 L 2.515625 -6.578125 C 3.128906 -6.578125 3.617188 -6.441406 3.984375 -6.171875 C 4.359375 -5.910156 4.546875 -5.488281 4.546875 -4.90625 C 4.546875 -4.238281 4.269531 -3.765625 3.71875 -3.484375 C 4.65625 -3.328125 5.125 -2.773438 5.125 -1.828125 C 5.125 -1.273438 4.929688 -0.832031 4.546875 -0.5 C 4.160156 -0.164062 3.632812 0 2.96875 0 L 0.484375 0 Z M 1.96875 -4 L 2.09375 -4 C 2.425781 -4 2.675781 -4.054688 2.84375 -4.171875 C 3.007812 -4.285156 3.09375 -4.476562 3.09375 -4.75 C 3.09375 -5.195312 2.757812 -5.421875 2.09375 -5.421875 L 1.96875 -5.421875 Z M 1.96875 -1.15625 L 2.453125 -1.15625 C 3.179688 -1.15625 3.546875 -1.398438 3.546875 -1.890625 C 3.546875 -2.179688 3.453125 -2.390625 3.265625 -2.515625 C 3.085938 -2.640625 2.816406 -2.703125 2.453125 -2.703125 L 1.96875 -2.703125 Z M 1.96875 -1.15625 "/></g></g></g><g fill="#152029" fill-opacity="1"><g transform="translate(90.921703, 67.552786)"><g><path d="M -0.234375 -6.578125 L 1.5625 -6.578125 L 2.9375 -4.46875 L 4.296875 -6.578125 L 6.109375 -6.578125 L 3.6875 -2.953125 L 3.6875 0 L 2.1875 0 L 2.1875 -2.953125 Z M -0.234375 -6.578125 "/></g></g></g><g fill="#152029" fill-opacity="1"><g transform="translate(98.366949, 67.552786)"><g/></g></g><g fill="#152029" fill-opacity="1"><g transform="translate(102.121773, 67.552786)"><g><path d="M 0.484375 -6.578125 L 2.515625 -6.578125 C 3.128906 -6.578125 3.617188 -6.441406 3.984375 -6.171875 C 4.359375 -5.910156 4.546875 -5.488281 4.546875 -4.90625 C 4.546875 -4.238281 4.269531 -3.765625 3.71875 -3.484375 C 4.65625 -3.328125 5.125 -2.773438 5.125 -1.828125 C 5.125 -1.273438 4.929688 -0.832031 4.546875 -0.5 C 4.160156 -0.164062 3.632812 0 2.96875 0 L 0.484375 0 Z M 1.96875 -4 L 2.09375 -4 C 2.425781 -4 2.675781 -4.054688 2.84375 -4.171875 C 3.007812 -4.285156 3.09375 -4.476562 3.09375 -4.75 C 3.09375 -5.195312 2.757812 -5.421875 2.09375 -5.421875 L 1.96875 -5.421875 Z M 1.96875 -1.15625 L 2.453125 -1.15625 C 3.179688 -1.15625 3.546875 -1.398438 3.546875 -1.890625 C 3.546875 -2.179688 3.453125 -2.390625 3.265625 -2.515625 C 3.085938 -2.640625 2.816406 -2.703125 2.453125 -2.703125 L 1.96875 -2.703125 Z M 1.96875 -1.15625 "/></g></g></g><g fill="#152029" fill-opacity="1"><g transform="translate(109.009071, 67.552786)"><g><path d="M 4.234375 -6.578125 L 4.234375 -5.265625 L 1.96875 -5.265625 L 1.96875 -3.953125 L 4.140625 -3.953125 L 4.140625 -2.640625 L 1.96875 -2.640625 L 1.96875 -1.3125 L 4.234375 -1.3125 L 4.234375 0 L 0.484375 0 L 0.484375 -6.578125 Z M 4.234375 -6.578125 "/></g></g></g><g fill="#152029" fill-opacity="1"><g transform="translate(115.21089, 67.552786)"><g><path d="M 3.8125 -6.578125 L 6.46875 0 L 4.859375 0 L 4.375 -1.3125 L 1.875 -1.3125 L 1.390625 0 L -0.21875 0 L 2.4375 -6.578125 Z M 3.859375 -2.625 L 3.125 -4.546875 L 3.109375 -4.546875 L 2.375 -2.625 Z M 3.859375 -2.625 "/></g></g></g></svg>